<?xml version="1.0" encoding="utf-8"?>
<svg version="1.1" x="0px" y="0px" viewBox="158.955 129.35 280.301 308.537" style="enable-background:new 0 0 612 792;" xmlns="http://www.w3.org/2000/svg">
  <style type="text/css">
	.st0{fill:#83BD7C;stroke:#FFFFFF;stroke-miterlimit:10;}
	.st1{opacity:0.7;}
	.st2{fill:#FFFFFF;}
	.st3{display:none;}
	.st4{display:inline;fill:none;stroke:#13007C;stroke-width:0.5;stroke-miterlimit:10;}
	.st5{display:inline;}
	.st6{fill:#151011;}
	.st7{display:inline;fill:#151011;}
	.st8{display:none;fill:none;stroke:#13007C;stroke-width:0.5;stroke-miterlimit:10;}
	.st9{display:none;fill:#E5E5E5;}
	.st10{display:inline;fill:none;stroke:#000000;stroke-width:0.7235;stroke-miterlimit:10;}
	.st11{display:inline;fill:none;stroke:#000000;stroke-width:0.8;stroke-miterlimit:10;}
	.st12{display:inline;fill:#EDF8FB;}
	.st13{display:inline;fill:#E5E5E5;stroke:#000000;stroke-width:0.8;}
	.st14{display:inline;fill:none;stroke:#67C6DD;stroke-width:0.8;stroke-miterlimit:10;}
	.st15{fill:none;stroke:#000000;stroke-width:0.8;stroke-miterlimit:10;}
	.st16{fill:#E5E5E5;stroke:#000000;stroke-width:0.8;}
	.st17{display:inline;fill-rule:evenodd;clip-rule:evenodd;fill:#151011;}
</style>
  <g id="Base">
    <rect x="118" y="128.5" class="st0" width="393.4" height="373.9"/>
    <g>
      <g class="st1">
        <g>
          <path class="st2" d="M277.2,281.7l-29.4-0.2l-0.2-0.5l27-18.8L277.2,281.7z M248.6,281l27.9,0.2l-2.3-18L248.6,281z"/>
        </g>
        <g>
          <path class="st2" d="M267.4,300.8l-19-14.6l0.1-0.5l28.3-4.5l0.3,0.4L267.4,300.8z M249.2,286.2l18,13.8l9.2-18.1L249.2,286.2z"/>
        </g>
        <g>
          <path class="st2" d="M248.3,286.3l-0.8-5.3l29.4,0.2l0.1,0.5L248.3,286.3z M248.1,281.5l0.7,4.1l24.8-4L248.1,281.5z"/>
        </g>
        <g>
          <path class="st2" d="M247.6,281.7l-4.1-24.6l31,5.3l0.1,0.5L247.6,281.7z M244.2,257.8l3.8,23l25.7-17.9L244.2,257.8z"/>
        </g>
        <g>
          <path class="st2" d="M255,301.6l-6.7-15.5l0.4-0.3l18.7,14.4l-0.1,0.5L255,301.6z M249.2,286.8l6.1,14.2l11.2-0.9L249.2,286.8z"/>
        </g>
        <g>
          <path class="st2" d="M247.6,281.5l-15.5-18.2l12-6.2l4,24.2L247.6,281.5z M232.9,263.4l14.4,16.9l-3.8-22.5L232.9,263.4z"/>
        </g>
        <g>
          <path class="st2" d="M255,301.5l-19.8-10.8l0.1-0.5l2.2-0.6l17.8,11.4L255,301.5z M236.1,290.6l12.5,6.8l-11.2-7.2L236.1,290.6z "/>
        </g>
        <g>
          <path class="st2" d="M229.4,317.2l-0.4-0.3l6.1-26.8l20.1,10.9v0.5L229.4,317.2z M235.5,290.9l-5.8,25.5l24.9-15.1L235.5,290.9z "/>
        </g>
        <g>
          <path class="st2" d="M247.8,321.3l-18.5-4l-0.1-0.5l25.9-15.7l0.4,0.3L247.8,321.3z M230,316.9l17.4,3.8l7.2-18.7L230,316.9z"/>
        </g>
        <g>
          <path class="st2" d="M255,301.5l-17.8-11.3l0.1-0.5l11.4-4l6.7,15.5L255,301.5z M238,290l16.6,10.6l-6.2-14.3L238,290z"/>
        </g>
        <g>
          <path class="st2" d="M234,231.2l-5.2-6l8.8-13.6l0.5,0.2l-3.6,19.3L234,231.2z M229.5,225.2l4.6,5.3l3.2-17.4L229.5,225.2z"/>
        </g>
        <g>
          <path class="st2" d="M240.6,326.2l-11.5-9l0.2-0.5l18.3,4l0.1,0.5L240.6,326.2z M230.4,317.5l10.3,8l6.3-4.4L230.4,317.5z"/>
        </g>
        <g>
          <path class="st2" d="M237.2,290.5l-5-27.1l0.5-0.2l15.5,18.1L237.2,290.5z M233,264.3l4.6,25.2l9.8-8.2L233,264.3z"/>
        </g>
        <g>
          <path class="st2" d="M237.5,290.2l-0.3-0.5l10.4-8.7l0.4,0.2l0.8,4.9L237.5,290.2z M247.6,281.8l-8.9,7.4l9.5-3.4L247.6,281.8z"/>
        </g>
        <g>
          <path class="st2" d="M227.4,261.2l6.5-30.2l0.5,0l9.7,26.7L227.4,261.2z M234.3,232l-6.2,28.5l15.3-3.2L234.3,232z"/>
        </g>
        <g>
          <path class="st2" d="M228,261.3l-6.2-2.9l12.2-27.4l0.5,0.2L228,261.3z M222.5,258.1l5.1,2.4l5.8-26.9L222.5,258.1z"/>
        </g>
        <g>
          <path class="st2" d="M235.1,290.9l-2.9-27.5l0.5-0.1l5,26.9L235.1,290.9z M233.5,270.1l2.1,20l1.5-0.4L233.5,270.1z"/>
        </g>
        <g>
          <path class="st2" d="M229.5,317.3l-4.1-1.5l9.7-25.4l0.5,0.2L229.5,317.3z M226.1,315.5l3.1,1.1l5.1-22.4L226.1,315.5z"/>
        </g>
        <g>
          <path class="st2" d="M232.5,263.6l-4.8-2.5l0.1-0.5l16.1-3.4l0.2,0.5L232.5,263.6z M228.6,261l3.9,2.1l9.4-4.9L228.6,261z"/>
        </g>
        <g>
          <rect x="216.8" y="322.8" transform="matrix(0.5949 -0.8038 0.8038 0.5949 -183.5207 311.336)" class="st2" width="0.5" height="29.8"/>
        </g>
        <g>
          <path class="st2" d="M226,315.8l-0.5,0l-5.9-25.8l16.2,0.4L226,315.8z M220.2,290.4l5.6,24.3l9.2-23.9L220.2,290.4z"/>
        </g>
        <g>
          <path class="st2" d="M235.6,290.8l-16.2-0.4l12.8-27.2l0.5,0.1L235.6,290.8z M220.3,289.9l14.8,0.4l-2.7-25.9L220.3,289.9z"/>
        </g>
        <g>
          <path class="st2" d="M229.3,341.1l-0.5-0.2l0.2-24l0.4-0.2l11.5,9L229.3,341.1z M229.6,317.5l-0.2,22.6l10.9-14.3L229.6,317.5z"/>
        </g>
        <g>
          <path class="st2" d="M220.1,290.3l-0.5-0.2l8-29.6l5.2,2.7L220.1,290.3z M228,261.3l-7,26l11.2-23.8L228,261.3z"/>
        </g>
        <g>
          <path class="st2" d="M229.2,225.5L210.4,215l0.1-0.5l27.2-3l0.2,0.4L229.2,225.5z M211.5,215l17.5,9.9l8.2-12.7L211.5,215z"/>
        </g>
        <g>
          <path class="st2" d="M219.8,316.3l-0.2-26.2l0.5-0.1l5.9,25.8L219.8,316.3z M220.1,292.6l0.2,23.1l5.1-0.4L220.1,292.6z"/>
        </g>
        <g>
          <path class="st2" d="M228.9,341l-9.2-25.3l6.3-0.4l3.4,25.6L228.9,341z M220.4,316.3l8.1,22.2l-3-22.6L220.4,316.3z"/>
        </g>
        <g>
          <path class="st2" d="M228.8,341l-3.5-25.8l4.2,1.5l-0.2,24.2L228.8,341z M226,316l2.8,21.1l0.2-20L226,316z"/>
        </g>
        <g>
          <path class="st2" d="M222.4,258.4l-0.5-0.2l7-33l0.5-0.1l5.2,6l-0.1,0.2L222.4,258.4z M229.3,225.8l-6.3,30l11-24.7L229.3,225.8 z"/>
        </g>
        <g>
          <path class="st2" d="M220.1,290.2l-0.5-0.1l2.3-32.3l6.2,2.9L220.1,290.2z M222.4,258.6l-2.1,28.8l7.2-26.4L222.4,258.6z"/>
        </g>
        <g>
          <path class="st2" d="M222.3,258.5l-27.5-5.7l-0.1-0.5l34.2-27.4l0.4,0.3L222.3,258.5z M195.5,252.4l26.4,5.5l6.8-32L195.5,252.4 z"/>
        </g>
        <g>
          <path class="st2" d="M229,341.2l-24.4-12.3l15.5-13.4l9.2,25.3L229,341.2z M205.6,328.8l23,11.6l-8.7-23.9L205.6,328.8z"/>
        </g>
        <g>
          <path class="st2" d="M195.1,252.8l-0.4-0.3l15.8-38l19.1,10.7L195.1,252.8z M210.7,215.2l-15.2,36.5l33-26.5L210.7,215.2z"/>
        </g>
        <g>
          <path class="st2" d="M228.9,346.8l-24-17.8l0.3-0.5l24.1,12.1v5.8L228.9,346.8z M207.8,330.5l21,15.6v-5L207.8,330.5z"/>
        </g>
        <g>
          <path class="st2" d="M219.6,290.3l-23.2-33.4l0.2-0.4l25.8,1.5l-2.3,32.2L219.6,290.3z M197.2,257l22.5,32.3l2.2-30.9L197.2,257 z"/>
        </g>
        <g>
          <path class="st2" d="M220.3,316.3h-18l-0.2-0.4l17.6-25.9l0.5,0.2L220.3,316.3z M202.8,315.8h17l-0.2-24.7L202.8,315.8z"/>
        </g>
        <g>
          <path class="st2" d="M194.7,252.7l-11.1-17.8l26.8-20.4l0.4,0.3l-15.7,37.8L194.7,252.7z M184.3,235.1l10.6,16.9l15.1-36.4 L184.3,235.1z"/>
        </g>
        <g>
          <path class="st2" d="M184.3,295.6l12-38.9l0.5-0.1l23.5,33.8L184.3,295.6z M196.7,257.3l-11.6,37.6l34.3-5L196.7,257.3z"/>
        </g>
        <g>
          <path class="st2" d="M222.1,258.5l-25.7-1.5l-1.8-4.3l0.3-0.4l27.2,5.7L222.1,258.5z M196.8,256.5l21.7,1.3l-23.1-4.8 L196.8,256.5z"/>
        </g>
        <g>
          <path class="st2" d="M205,329.4l-3-13.6H220l0.2,0.5L205,329.4z M202.6,316.3l2.7,12.1l14-12.1H202.6z"/>
        </g>
      </g>
      <g>
        <g>
          <g>
            <path class="st2" d="M339,288c-0.1-0.4-0.2-0.9-0.3-1.3c-0.1-0.5-0.3-1-0.5-1.5c0-0.1-0.1-0.1-0.1-0.2c-1.9-4.1-6-7.1-10.8-7.2 c-4.1-0.1-7.8,1.9-10,5c-0.5,0.6-0.9,1.4-1.2,2.1c0,0.1-0.1,0.1-0.1,0.2c-0.2,0.5-0.4,1-0.5,1.5c-0.1,0.4-0.2,0.9-0.3,1.3 c-0.1,0.4-0.1,0.8-0.2,1.3c0,0.4,0,0.7,0,1c0,0.6,0.1,1.1,0.2,1.7c0.1,0.5,0.2,1,0.3,1.5c1.5,5,6,8.7,11.4,8.8 c4.1,0.1,7.8-1.9,10-5l-6.3-2.3c-0.9,0.8-2.1,1.3-3.3,1.4c-2.1,0.1-3.9-0.9-4.8-2.9c-0.2-0.5-0.4-0.9-0.5-1.5h0.4h9.9h6.8 c0.1-0.4,0.1-0.7,0.1-1.1c0-0.4,0-0.7,0-1C339.2,289.2,339.1,288.6,339,288z M321.9,288c0.1-0.5,0.3-0.9,0.5-1.3 c0.3-0.6,0.6-1.1,1.1-1.5h0h0c0.1-0.1,0.1-0.1,0.2-0.2c0.9-0.8,1.9-1.2,3.1-1.3c1.4-0.1,2.6,0.4,3.6,1.3 c0.1,0.1,0.1,0.1,0.2,0.2c0.4,0.4,0.8,0.9,1,1.5c0.2,0.4,0.4,0.8,0.5,1.3h-0.8L321.9,288L321.9,288z"/>
          </g>
          <g>
            <path class="st2" d="M260.2,261.5c0-4.6-2.8-8.6-6.8-10.3c-1.3-0.6-2.8-0.9-4.3-0.9h-13.1h0l0,31.1h6.8v-8.8h5l4.3,8.8h7.4 l-5.1-10.1C257.8,269.4,260.2,265.7,260.2,261.5z M253.4,261.5c0,2.4-2,4.4-4.4,4.4h-6.3v-8.8h6.3 C251.4,257.1,253.4,259.1,253.4,261.5z"/>
          </g>
          <g>
            <path class="st2" d="M268.6,271.5v-2.4l-5.8,5.3l5.8,5.5v-2.4c5.5,0,8.7,4.8,8.7,9.6c0,4.8-3.4,9.7-8.7,9.7 c-5.8,0-8.7-4.9-8.7-9.7h-6.8c0,8.6,7,15.6,15.6,15.6c8.6,0,15.6-7,15.6-15.6C284.2,278.4,277.2,271.5,268.6,271.5z"/>
          </g>
          <g>
            <path class="st2" d="M411.9,292.6c-0.8,2.3-2.6,3.6-4.7,3.7c-2.4,0.1-4.3-1.2-5.2-3.7c-0.2-0.5-0.3-1.1-0.4-1.8 c0-0.4-0.1-0.7-0.1-1.1c0-0.2,0-0.4,0-0.5c0.1-0.6,0.2-1.2,0.4-1.8c0.8-2.2,2.6-3.6,4.7-3.8c2.4-0.1,4.3,1.3,5.2,3.8l6.7-1.2 c-1.6-4.8-6-8.4-11.3-8.5c-5.5-0.1-10.2,3.5-11.8,8.5c-0.4,1.1-0.5,2.2-0.6,3.3c0,0.2,0,0.4,0,0.6c0,0.1,0,0.1,0,0.2 c0,1.2,0.2,2.3,0.6,3.3c1.6,4.8,6,8.4,11.3,8.5c5.5,0.1,10.2-3.5,11.8-8.5L411.9,292.6z"/>
          </g>
          <g>
            <rect x="421.8" y="278.5" class="st2" width="6.8" height="23.2"/>
          </g>
          <g>
            <path class="st2" d="M428.1,274h-5.7c-0.3,0-0.6-0.2-0.6-0.6v-5.7c0-0.3,0.2-0.6,0.6-0.6h5.7c0.3,0,0.6,0.2,0.6,0.6v5.7 C428.7,273.8,428.4,274,428.1,274z"/>
          </g>
          <g>
            <path class="st2" d="M390.6,287c-2.1-2.6-7.2-4.5-9.7-5.4c-2.2-0.8-3.1-1.5-3-2.6c0.1-2.1,2.1-2.6,3.5-2.6 c3.1,0,3.5,3.2,3.5,3.2l6-1.5c0,0-1.2-7.6-10.5-7.6c-3,0-6.3,1.8-8,4c-1.5,2-1.7,4.5-0.7,7c1.3,3.3,4,4.3,6.8,5.3 c2.1,0.8,4.8,1.5,6.5,3.2c0.8,0.8,1,2.3,0.4,3.5c-0.6,1.3-2.4,2.2-4.1,2.2c-3.7,0-5.2-3.3-5.3-3.5l-0.2-0.5l-6.7,1.3l0.2,0.6 c0,0.1,0.6,2.1,2.4,4.2c1.7,1.9,4.7,4.2,9.8,4.2c4.3,0,7.8-1.9,9.7-5.2C392.8,293.8,392.9,289.9,390.6,287z"/>
          </g>
          <g>
            <path class="st2" d="M301,277.8c-2.5-0.1-5,0.6-6.3,1.9v-1.1h-6.8v34h6.8v-12.1c1.2,1.1,3.6,1.8,5.9,1.9 c6.9,0.1,11.7-5.6,11.6-12.4C312.1,283.4,307.5,278,301,277.8z M300.3,296.4c-3.2,0.2-5.6-2.3-5.6-6.5v-0.2c0-3.4,2.3-5.9,5-6 c3.2-0.2,5.6,2.5,5.6,6.6C305.4,294,303,296.2,300.3,296.4z"/>
          </g>
        </g>
        <g>
          <path class="st2" d="M354.8,277.9c-4,0-5.9,2.7-5.9,2.7v-2.1h-6.3v23.2h6.3c0,0,0-7.3,0-10.9c0-3.8,1.8-6.8,4.9-6.8 c3.1,0,4.8,2.7,4.8,6.8v10.9h6.4c0,0,0-10.4,0-12.9C364.9,286.3,364.3,277.9,354.8,277.9z"/>
        </g>
      </g>
    </g>
  </g>
  <g id="Artwork" class="st3"/>
  <g id="Cut_line" class="st3">
    <polygon class="st4" points="430.7,356.3 306,428.3 181.3,356.3 181.3,212.3 306,140.3 430.7,212.3 &#9;"/>
  </g>
  <g id="Instructions">
    <path class="st2" d="M0,0v792h612V0H0z M438.7,207.7v153.2L306,437.5l-132.7-76.6V207.7L306,131.1L438.7,207.7z"/>
    <g class="st3">
      <g class="st5">
        <path class="st6" d="M110.4,51.3h4v9h10.6v-9h4V74h-4V64h-10.6v10h-4V51.3z"/>
        <path class="st6" d="M136.9,67.6c0.3,2.3,2,3.6,4.1,3.6c1.9,0,3.2-0.9,4.1-2.1l2.8,2.1c-1.8,2.2-4.1,3.1-6.5,3.1 c-4.6,0-8.4-3.2-8.4-8.1c0-4.8,3.7-8.1,8.4-8.1c4.3,0,7.2,3,7.2,8.4v1.1H136.9z M144.7,64.8c0-2.2-1.5-3.6-3.9-3.6 c-2.3,0-3.7,1.4-4,3.6H144.7z"/>
        <path class="st6" d="M156.1,65.7l-5.3-7.1h4.7l3.1,4.6l3.3-4.6h4.4l-5.2,7.1l6.2,8.3h-4.7l-4-5.5l-4,5.5H150L156.1,65.7z"/>
        <path class="st6" d="M179,71.9L179,71.9c-1.2,1.7-3,2.5-5,2.5c-2.8,0-5.6-1.6-5.6-4.6c0-5,5.8-5.3,9.7-5.3h1V64 c0-1.9-1.5-2.9-3.5-2.9c-1.6,0-3.1,0.6-4.1,1.6l-2-2c1.7-1.7,4.1-2.5,6.5-2.5c6.6,0,6.6,4.7,6.6,6.9V74H179V71.9z M178.7,67.1 h-0.8c-2.1,0-5.8,0.2-5.8,2.4c0,1.4,1.4,2,2.7,2c2.6,0,3.9-1.4,3.9-3.5V67.1z"/>
        <path class="st6" d="M202.3,58.6v14c0,5.5-2.7,9.1-8.7,9.1c-2.8,0-5.4-0.6-7.6-2.5l2.3-3.1c1.5,1.4,3.1,2.2,5.3,2.2 c3.7,0,4.9-2.1,4.9-5.2v-1.1h-0.1c-1.1,1.5-3.1,2.2-5,2.2c-4.6,0-7.6-3.5-7.6-7.9c0-4.5,2.8-8.1,7.6-8.1c2.1,0,4.2,0.8,5.3,2.7 h0.1v-2.3H202.3z M189.6,66.3c0,2.4,1.9,4.4,4.5,4.4c2.8,0,4.6-2,4.6-4.5c0-2.7-1.8-4.5-4.5-4.5 C191.5,61.7,189.6,63.5,189.6,66.3z"/>
        <path class="st6" d="M214.3,58.2c4.6,0,8.4,3.2,8.4,8.1c0,4.8-3.7,8.1-8.4,8.1s-8.4-3.2-8.4-8.1 C205.9,61.5,209.6,58.2,214.3,58.2z M214.3,70.9c2.8,0,4.5-2.2,4.5-4.6c0-2.4-1.7-4.6-4.5-4.6s-4.5,2.2-4.5,4.6 C209.8,68.7,211.5,70.9,214.3,70.9z"/>
        <path class="st6" d="M226.2,58.6h3.6v2.5h0.1c0.7-1.5,2.1-2.8,4.7-2.8c4.1,0,5.6,2.9,5.6,6V74h-3.8v-7.8c0-1.7-0.1-4.5-2.8-4.5 c-2.5,0-3.5,1.9-3.5,3.9V74h-3.8V58.6z"/>
        <path class="st6" d="M265.5,56.2c-0.9-1.2-2.4-1.8-4-1.8c-1.9,0-3.7,0.8-3.7,2.9c0,4.5,10.8,2,10.8,10c0,4.9-3.8,7.2-8.3,7.2 c-2.8,0-5.6-0.9-7.4-3.1l3-2.9c1,1.5,2.7,2.4,4.5,2.4c1.9,0,4-1,4-3.1c0-5-10.8-2.1-10.8-10.2c0-4.7,4.2-6.8,8.4-6.8 c2.4,0,4.7,0.7,6.5,2.3L265.5,56.2z"/>
        <path class="st6" d="M270.6,61.9v-3.3h3.2v-4.4h3.8v4.4h4.2v3.3h-4.2v6.7c0,1.5,0.4,2.5,2.1,2.5c0.7,0,1.6-0.1,2.1-0.5v3.2 c-0.8,0.4-2.1,0.5-3,0.5c-4.1,0-5-1.8-5-5.4v-7H270.6z"/>
        <path class="st6" d="M286.8,51.1c1.4,0,2.5,1,2.5,2.3c0,1.3-1.1,2.3-2.5,2.3c-1.4,0-2.4-1.1-2.4-2.3 C284.4,52.2,285.4,51.1,286.8,51.1z M284.9,58.6h3.8V74h-3.8V58.6z"/>
        <path class="st6" d="M303.7,63.2c-0.9-0.9-1.9-1.5-2.9-1.5c-2.8,0-4.5,2.2-4.5,4.6c0,2.4,1.7,4.6,4.5,4.6c1.2,0,2.3-0.5,3-1.4 l2.6,2.8c-1.6,1.6-4.2,2.1-5.5,2.1c-4.6,0-8.4-3.2-8.4-8.1c0-4.8,3.7-8.1,8.4-8.1c2,0,4.1,0.7,5.6,2.3L303.7,63.2z"/>
        <path class="st6" d="M308.6,49.8h3.8V65l5.9-6.4h4.9l-6.6,7l7,8.4h-5.1l-6.1-7.8h-0.1V74h-3.8V49.8z"/>
        <path class="st6" d="M328.9,67.6c0.3,2.3,2,3.6,4.1,3.6c1.9,0,3.2-0.9,4.1-2.1l2.8,2.1c-1.8,2.2-4.1,3.1-6.5,3.1 c-4.6,0-8.4-3.2-8.4-8.1c0-4.8,3.7-8.1,8.4-8.1c4.3,0,7.2,3,7.2,8.4v1.1H328.9z M336.7,64.8c0-2.2-1.5-3.6-3.9-3.6 c-2.3,0-3.7,1.4-4,3.6H336.7z"/>
        <path class="st6" d="M344.2,58.6h3.8V61h0.1c0.8-1.8,2.5-2.8,4.5-2.8c0.5,0,0.9,0.1,1.4,0.2v3.7c-0.6-0.2-1.2-0.3-1.9-0.3 c-3.6,0-4.1,3-4.1,3.9V74h-3.8V58.6z"/>
        <path class="st6" d="M371.1,55h-6.9v-3.6H382V55h-6.9v19h-4V55z"/>
        <path class="st6" d="M387.5,67.6c0.3,2.3,2,3.6,4.1,3.6c1.9,0,3.2-0.9,4.1-2.1l2.8,2.1c-1.8,2.2-4.1,3.1-6.5,3.1 c-4.6,0-8.4-3.2-8.4-8.1c0-4.8,3.7-8.1,8.4-8.1c4.3,0,7.2,3,7.2,8.4v1.1H387.5z M395.4,64.8c0-2.2-1.5-3.6-3.9-3.6 c-2.3,0-3.7,1.4-4,3.6H395.4z"/>
        <path class="st6" d="M402.7,58.6h3.6V61h0.1c0.7-1.4,2.1-2.8,4.7-2.8c2.4,0,4,0.9,4.8,2.8c1.1-2,2.8-2.8,5.1-2.8 c4.1,0,5.5,2.9,5.5,6.6V74h-3.8v-8.7c0-1.9-0.6-3.6-2.8-3.6c-2.4,0-3.3,2-3.3,4V74h-3.8v-9.2c0-1.9-0.8-3.1-2.6-3.1 c-2.5,0-3.5,1.9-3.5,3.9V74h-3.8V58.6z"/>
        <path class="st6" d="M430.7,58.6h3.6v2.3h0.1c1.1-1.9,3.1-2.7,5.3-2.7c4.7,0,7.6,3.5,7.6,8.1c0,4.5-3,8.1-7.4,8.1 c-2.9,0-4.4-1.3-5.2-2.3h-0.1v9.2h-3.8V58.6z M438.9,61.7c-2.8,0-4.5,2.2-4.5,4.6c0,2.4,1.7,4.6,4.5,4.6c2.8,0,4.5-2.2,4.5-4.6 C443.4,63.9,441.7,61.7,438.9,61.7z"/>
        <path class="st6" d="M450.9,49.8h3.8V74h-3.8V49.8z"/>
        <path class="st6" d="M468.7,71.9L468.7,71.9c-1.2,1.7-3,2.5-5,2.5c-2.8,0-5.6-1.6-5.6-4.6c0-5,5.8-5.3,9.7-5.3h1V64 c0-1.9-1.5-2.9-3.5-2.9c-1.6,0-3.1,0.6-4.1,1.6l-2-2c1.7-1.7,4.1-2.5,6.5-2.5c6.6,0,6.6,4.7,6.6,6.9V74h-3.5V71.9z M468.5,67.1 h-0.8c-2.1,0-5.8,0.2-5.8,2.4c0,1.4,1.4,2,2.7,2c2.6,0,3.9-1.4,3.9-3.5V67.1z"/>
        <path class="st6" d="M474.5,61.9v-3.3h3.2v-4.4h3.8v4.4h4.2v3.3h-4.2v6.7c0,1.5,0.4,2.5,2.1,2.5c0.7,0,1.6-0.1,2.1-0.5v3.2 c-0.8,0.4-2.1,0.5-3,0.5c-4.1,0-5-1.8-5-5.4v-7H474.5z"/>
        <path class="st6" d="M491.8,67.6c0.3,2.3,2,3.6,4.1,3.6c1.9,0,3.2-0.9,4.1-2.1l2.8,2.1c-1.8,2.2-4.1,3.1-6.5,3.1 c-4.6,0-8.4-3.2-8.4-8.1c0-4.8,3.7-8.1,8.4-8.1c4.3,0,7.2,3,7.2,8.4v1.1H491.8z M499.7,64.8c0-2.2-1.5-3.6-3.9-3.6 c-2.3,0-3.7,1.4-4,3.6H499.7z"/>
        <g>
          <g>
            <path class="st6" d="M342,110.8h-6.6v-2.6l6.3-9.8h3v10h2.3v2.4h-2.3v3.2H342V110.8z M342,102.1L342,102.1l-3.9,6.3h3.9V102.1z "/>
            <path class="st6" d="M350.4,98.4h2.7l-1.9,5.8h-2.4L350.4,98.4z M355.1,98.4h2.7l-1.9,5.8h-2.4L355.1,98.4z"/>
          </g>
          <path class="st6" d="M321.1,108.3l-3.7-4.9h3.2l2.1,3.2l2.3-3.2h3l-3.6,4.9l4.2,5.7h-3.2l-2.8-3.8L320,114h-3.1L321.1,108.3z"/>
          <g>
            <path class="st6" d="M258.1,104.7h0.7c1.5,0,3-0.2,3-2.1c0-1.2-0.9-2-2.2-2c-1.1,0-2,0.6-2.3,1.7l-2.8-0.7 c0.7-2.3,2.7-3.3,5-3.3c2.7,0,5,1.4,5,4.2c0,1.7-1,3.1-2.7,3.5v0c2,0.3,3,1.9,3,3.8c0,3-2.5,4.6-5.3,4.6 c-2.6,0-4.7-1.1-5.3-3.7l2.8-0.7c0.3,1.3,1.1,2,2.5,2c1.4,0,2.6-1,2.6-2.4c0-2-1.8-2.4-3.5-2.4h-0.6V104.7z"/>
            <path class="st6" d="M269.5,110.7c0.9,0,1.8,0.7,1.8,1.7c0,0.9-0.8,1.7-1.8,1.7c-0.9,0-1.8-0.7-1.8-1.7 C267.8,111.5,268.5,110.7,269.5,110.7z"/>
            <path class="st6" d="M280.1,110.8h-6.6v-2.6l6.3-9.8h3v10h2.3v2.4h-2.3v3.2h-2.6V110.8z M280.1,102.1L280.1,102.1l-3.9,6.3h3.9 V102.1z"/>
            <path class="st6" d="M295.4,98.4l-3.7,5.8l0,0c0.3-0.2,0.9-0.3,1.5-0.3c2.8,0,4.7,2.3,4.7,5c0,3.2-2.4,5.3-5.5,5.3 c-3.3,0-5.5-2-5.5-5.3c0-1.6,0.6-2.9,1.5-4.3l4-6.3H295.4z M292.4,111.7c1.6,0,2.8-1.3,2.8-2.8c0-1.6-1.3-2.8-2.8-2.8 s-2.8,1.3-2.8,2.8C289.5,110.5,290.8,111.7,292.4,111.7z"/>
            <path class="st6" d="M301.6,98.4h2.7l-1.9,5.8h-2.4L301.6,98.4z M306.3,98.4h2.7l-1.9,5.8h-2.4L306.3,98.4z"/>
          </g>
        </g>
      </g>
    </g>
    <g class="st3">
      <path class="st7" d="M242.8,464.4c-0.6,0.9-1.9,1.7-3.4,1.7c-2.7,0-4.8-2-4.8-4.8s2.1-4.8,4.8-4.8c1.1,0,2.4,0.4,3.2,1.5l-0.8,0.6 c-0.4-0.6-1.4-1.2-2.4-1.2c-2.4,0-3.8,1.9-3.8,4s1.4,4,3.8,4c1,0,2-0.3,2.6-1.4L242.8,464.4z"/>
      <path class="st7" d="M248.5,465.8c0-0.3,0-0.7,0-1h0c-0.4,0.7-1.2,1.1-2,1.1c-1.5,0-2.3-0.9-2.3-2.4v-3.9h0.9v3.4 c0,1.4,0.4,2.1,1.7,2.1c0.2,0,1.8-0.1,1.8-2.3v-3.1h0.9v4.7c0,0.3,0,0.9,0.1,1.3H248.5z"/>
      <path class="st7" d="M254.5,460.5h-1.8v3.6c0,0.9,0.4,1.1,0.9,1.1c0.3,0,0.6-0.1,0.9-0.2l0,0.8c-0.3,0.1-0.7,0.2-1.2,0.2 c-0.7,0-1.5-0.3-1.5-1.6v-3.8h-1.3v-0.8h1.3V458h0.9v1.7h1.8V460.5z"/>
      <path class="st7" d="M260.3,465.8h-0.9V456h0.9V465.8z"/>
      <path class="st7" d="M263,458c-0.3,0-0.6-0.3-0.6-0.6s0.3-0.6,0.6-0.6c0.3,0,0.6,0.3,0.6,0.6S263.3,458,263,458z M263.4,465.8 h-0.9v-6.1h0.9V465.8z"/>
      <path class="st7" d="M266.3,459.7c0,0.3,0,0.7,0,1h0c0.4-0.7,1.2-1.1,2-1.1c1.5,0,2.3,0.9,2.3,2.4v3.9h-0.9v-3.4 c0-1.4-0.4-2.1-1.7-2.1c-0.2,0-1.8,0.1-1.8,2.3v3.1h-0.9v-4.7c0-0.3,0-0.9-0.1-1.3H266.3z"/>
      <path class="st7" d="M273.3,463c0.1,1.2,1,2.2,2.2,2.2c0.9,0,1.6-0.5,2-1.1l0.7,0.5c-0.7,0.9-1.6,1.3-2.6,1.3 c-1.8,0-3.1-1.4-3.1-3.2s1.3-3.2,3.1-3.2c1.8,0,2.9,1.4,2.9,3v0.4H273.3z M277.4,462.3c0-1.2-0.7-2-2-2c-1.1,0-2.1,0.9-2.1,2 H277.4z"/>
      <path class="st7" d="M283.2,461.2c-0.3-0.5-0.7-0.8-1.3-0.8c-0.6,0-1.3,0.3-1.3,0.9c0,0.6,0.4,0.8,1.2,1l0.9,0.2 c0.8,0.2,1.5,0.8,1.5,1.7c0,1.3-1.2,1.9-2.4,1.9c-0.9,0-1.8-0.3-2.3-1.2l0.7-0.5c0.4,0.5,0.9,0.9,1.6,0.9c0.7,0,1.4-0.3,1.4-1 c0-0.6-0.5-0.8-1.2-1l-0.8-0.2c-0.4-0.1-1.6-0.4-1.6-1.6c0-1.3,1.1-1.8,2.2-1.8c0.8,0,1.6,0.3,2,1.1L283.2,461.2z"/>
    </g>
    <rect x="205.3" y="451.9" class="st8" width="18" height="18"/>
    <g class="st3">
      <path class="st7" d="M343.9,456.6h2.7c1.9,0,3,0.8,3,2.5c0,1.7-1.2,2.5-3,2.5h-1.7v4.3h-0.9V456.6z M344.9,460.7h1.5 c1.7,0,2.2-0.7,2.2-1.6c0-0.9-0.6-1.6-2.2-1.6h-1.5V460.7z"/>
      <path class="st7" d="M351.2,461.6c0-0.5,0-1-0.1-1.9h0.8v1.1h0c0.2-0.7,0.9-1.3,2-1.3c0.2,0,0.5,0,0.6,0.1l-0.2,0.8 c-0.1,0-0.3-0.1-0.5-0.1c-1.3,0-1.9,1.1-1.9,2v3.4h-0.9V461.6z"/>
      <path class="st7" d="M356,458c-0.3,0-0.6-0.3-0.6-0.6s0.3-0.6,0.6-0.6c0.3,0,0.6,0.3,0.6,0.6S356.3,458,356,458z M356.5,465.8 h-0.9v-6.1h0.9V465.8z"/>
      <path class="st7" d="M359.3,459.7c0,0.3,0,0.7,0,1h0c0.4-0.7,1.2-1.1,2-1.1c1.5,0,2.3,0.9,2.3,2.4v3.9h-0.9v-3.4 c0-1.4-0.4-2.1-1.7-2.1c-0.2,0-1.8,0.1-1.8,2.3v3.1h-0.9v-4.7c0-0.3,0-0.9-0.1-1.3H359.3z"/>
      <path class="st7" d="M368.9,460.5h-1.8v3.6c0,0.9,0.4,1.1,0.9,1.1c0.3,0,0.6-0.1,0.9-0.2l0,0.8c-0.3,0.1-0.7,0.2-1.2,0.2 c-0.7,0-1.5-0.3-1.5-1.6v-3.8H365v-0.8h1.3V458h0.9v1.7h1.8V460.5z"/>
      <path class="st7" d="M374,462.1v-0.2c0-1.1-0.5-1.6-1.6-1.6c-0.7,0-1.3,0.2-1.9,0.7l-0.5-0.6c0.6-0.6,1.4-0.9,2.6-0.9 c1.2,0,2.2,0.7,2.2,2.2v2.7c0,0.5,0.1,1,0.1,1.4h-0.8c-0.1-0.3-0.1-0.7-0.1-1h0c-0.5,0.8-1.2,1.1-2.1,1.1c-1.1,0-2.1-0.6-2.1-1.8 c0-2,2.3-2.1,3.8-2.1H374z M373.5,462.8c-0.9,0-2.8,0.1-2.8,1.3c0,0.8,0.7,1.1,1.4,1.1c1.2,0,1.8-0.9,1.8-2v-0.4H373.5z"/>
      <path class="st7" d="M376.8,456h0.9v4.8h0c0.6-0.8,1.6-1.2,2.4-1.2c1.9,0,3.2,1.4,3.2,3.2s-1.3,3.2-3.2,3.2 c-0.8,0-1.8-0.4-2.4-1.2h0v1h-0.9V456z M380.1,460.4c-1.4,0-2.4,1.1-2.4,2.4c0,1.4,1,2.4,2.4,2.4c1.4,0,2.3-1.1,2.3-2.4 C382.4,461.4,381.5,460.4,380.1,460.4z"/>
      <path class="st7" d="M385.8,465.8H385V456h0.9V465.8z"/>
      <path class="st7" d="M388.5,463c0.1,1.2,1,2.2,2.2,2.2c0.9,0,1.6-0.5,1.9-1.1l0.7,0.5c-0.7,0.9-1.6,1.3-2.6,1.3 c-1.8,0-3.1-1.4-3.1-3.2s1.3-3.2,3.1-3.2c1.8,0,2.9,1.4,2.9,3v0.4H388.5z M392.6,462.3c0-1.2-0.7-2-2-2c-1.1,0-2.1,0.9-2.1,2 H392.6z"/>
      <path class="st7" d="M402.6,462.1v-0.2c0-1.1-0.5-1.6-1.6-1.6c-0.7,0-1.3,0.2-1.9,0.7l-0.5-0.6c0.6-0.6,1.4-0.9,2.6-0.9 c1.2,0,2.2,0.7,2.2,2.2v2.7c0,0.5,0.1,1,0.1,1.4h-0.8c-0.1-0.3-0.1-0.7-0.1-1h0c-0.5,0.8-1.2,1.1-2.1,1.1c-1.1,0-2.1-0.6-2.1-1.8 c0-2,2.3-2.1,3.8-2.1H402.6z M402.2,462.8c-0.9,0-2.8,0.1-2.8,1.3c0,0.8,0.7,1.1,1.4,1.1c1.2,0,1.8-0.9,1.8-2v-0.4H402.2z"/>
      <path class="st7" d="M405.6,461.6c0-0.5,0-1-0.1-1.9h0.8v1.1h0c0.2-0.7,0.9-1.3,2-1.3c0.2,0,0.5,0,0.6,0.1l-0.2,0.8 c-0.1,0-0.3-0.1-0.5-0.1c-1.3,0-1.9,1.1-1.9,2v3.4h-0.9V461.6z"/>
      <path class="st7" d="M410.4,463c0.1,1.2,1,2.2,2.2,2.2c0.9,0,1.6-0.5,1.9-1.1l0.7,0.5c-0.7,0.9-1.6,1.3-2.6,1.3 c-1.8,0-3.1-1.4-3.1-3.2s1.3-3.2,3.1-3.2c1.8,0,2.9,1.4,2.9,3v0.4H410.4z M414.5,462.3c0-1.2-0.7-2-2-2c-1.1,0-2.1,0.9-2.1,2 H414.5z"/>
      <path class="st7" d="M420.9,462.1v-0.2c0-1.1-0.5-1.6-1.6-1.6c-0.7,0-1.3,0.2-1.9,0.7l-0.5-0.6c0.6-0.6,1.4-0.9,2.6-0.9 c1.2,0,2.2,0.7,2.2,2.2v2.7c0,0.5,0.1,1,0.1,1.4H421c-0.1-0.3-0.1-0.7-0.1-1h0c-0.5,0.8-1.2,1.1-2.1,1.1c-1.1,0-2.1-0.6-2.1-1.8 c0-2,2.3-2.1,3.8-2.1H420.9z M420.5,462.8c-0.9,0-2.8,0.1-2.8,1.3c0,0.8,0.7,1.1,1.4,1.1c1.2,0,1.8-0.9,1.8-2v-0.4H420.5z"/>
    </g>
    <rect x="314" y="451.9" class="st9" width="18" height="18"/>
    <g class="st3">
      <circle class="st10" cx="61.8" cy="549.4" r="8.5"/>
      <g class="st5">
        <path d="M78.2,546.6h2.1c1.4,0,2.3,0.6,2.3,1.9c0,1.3-0.9,1.9-2.3,1.9h-1.3v3.3h-0.7V546.6z M78.9,549.8h1.2 c1.3,0,1.7-0.6,1.7-1.2s-0.4-1.2-1.7-1.2h-1.2V549.8z"/>
        <path d="M86.7,550.8v-0.1c0-0.8-0.4-1.2-1.2-1.2c-0.5,0-1,0.2-1.4,0.5l-0.4-0.5c0.4-0.4,1.1-0.7,2-0.7c0.9,0,1.7,0.5,1.7,1.7v2.1 c0,0.4,0,0.8,0.1,1h-0.6c0-0.2-0.1-0.5-0.1-0.8h0c-0.4,0.6-0.9,0.9-1.6,0.9c-0.8,0-1.6-0.5-1.6-1.4c0-1.5,1.8-1.6,2.9-1.6H86.7z M86.4,551.4c-0.7,0-2.2,0.1-2.2,1c0,0.6,0.6,0.9,1.1,0.9c1,0,1.4-0.7,1.4-1.5v-0.3H86.4z"/>
        <path d="M91.4,550.1c-0.2-0.4-0.5-0.6-1-0.6c-0.5,0-1,0.2-1,0.7c0,0.4,0.3,0.6,0.9,0.7l0.7,0.2c0.6,0.2,1.1,0.6,1.1,1.3 c0,1-0.9,1.4-1.8,1.4c-0.7,0-1.4-0.2-1.8-0.9l0.6-0.4c0.3,0.4,0.7,0.7,1.2,0.7c0.5,0,1.1-0.2,1.1-0.8c0-0.5-0.4-0.6-0.9-0.7 l-0.6-0.2c-0.3-0.1-1.2-0.3-1.2-1.2c0-1,0.8-1.4,1.7-1.4c0.6,0,1.3,0.2,1.6,0.8L91.4,550.1z"/>
        <path d="M95.6,549.6h-1.3v2.8c0,0.7,0.3,0.8,0.7,0.8c0.2,0,0.5-0.1,0.7-0.2l0,0.6c-0.2,0.1-0.6,0.2-0.9,0.2 c-0.5,0-1.2-0.2-1.2-1.2v-2.9h-1V549h1v-1.3h0.7v1.3h1.3V549.6z"/>
        <path d="M96.9,551.5c0.1,0.9,0.8,1.7,1.7,1.7c0.7,0,1.2-0.4,1.5-0.8l0.5,0.4c-0.5,0.7-1.2,1-2,1c-1.4,0-2.4-1-2.4-2.5 s1-2.5,2.4-2.5c1.4,0,2.2,1.1,2.2,2.3v0.3H96.9z M100.1,551c0-0.9-0.6-1.5-1.5-1.5c-0.9,0-1.6,0.7-1.6,1.5H100.1z"/>
        <path d="M106.6,552.9l1.4-3.9h0.8l-2.3,5.9c-0.3,0.7-0.7,1.2-1.5,1.2c-0.2,0-0.4,0-0.6-0.1l0.1-0.6c0.1,0.1,0.3,0.1,0.5,0.1 c0.5,0,0.7-0.3,0.9-0.8l0.3-0.9l-1.9-4.7h0.8L106.6,552.9z"/>
        <path d="M111.9,553.8c-1.4,0-2.5-1-2.5-2.5s1-2.5,2.5-2.5c1.5,0,2.5,1,2.5,2.5S113.3,553.8,111.9,553.8z M111.9,549.5 c-1.1,0-1.8,0.8-1.8,1.9c0,1,0.7,1.9,1.8,1.9c1.1,0,1.8-0.8,1.8-1.9C113.6,550.3,113,549.5,111.9,549.5z"/>
        <path d="M118.9,553.7c0-0.2,0-0.5,0-0.8h0c-0.3,0.5-0.9,0.9-1.6,0.9c-1.2,0-1.8-0.7-1.8-1.8v-3h0.7v2.6c0,1,0.3,1.6,1.3,1.6 c0.1,0,1.4-0.1,1.4-1.8V549h0.7v3.6c0,0.2,0,0.7,0,1H118.9z"/>
        <path d="M121.2,550.5c0-0.4,0-0.8,0-1.5h0.6v0.9h0c0.2-0.5,0.7-1,1.5-1c0.2,0,0.3,0,0.5,0.1l-0.1,0.6c-0.1,0-0.2,0-0.4,0 c-1,0-1.4,0.9-1.4,1.5v2.6h-0.7V550.5z"/>
        <path d="M129.7,550.1c-0.2-0.4-0.5-0.6-1-0.6c-0.5,0-1,0.2-1,0.7c0,0.4,0.3,0.6,0.9,0.7l0.7,0.2c0.6,0.2,1.1,0.6,1.1,1.3 c0,1-0.9,1.4-1.8,1.4c-0.7,0-1.4-0.2-1.8-0.9l0.6-0.4c0.3,0.4,0.7,0.7,1.2,0.7c0.5,0,1.1-0.2,1.1-0.8c0-0.5-0.4-0.6-0.9-0.7 l-0.6-0.2c-0.3-0.1-1.2-0.3-1.2-1.2c0-1,0.8-1.4,1.7-1.4c0.6,0,1.3,0.2,1.6,0.8L129.7,550.1z"/>
        <path d="M133.9,549.6h-1.3v2.8c0,0.7,0.3,0.8,0.7,0.8c0.2,0,0.5-0.1,0.7-0.2l0,0.6c-0.2,0.1-0.6,0.2-0.9,0.2 c-0.5,0-1.2-0.2-1.2-1.2v-2.9h-1V549h1v-1.3h0.7v1.3h1.3V549.6z"/>
        <path d="M135.3,547.7c-0.2,0-0.5-0.2-0.5-0.5c0-0.3,0.2-0.5,0.5-0.5s0.5,0.2,0.5,0.5C135.8,547.5,135.5,547.7,135.3,547.7z M135.6,553.7H135V549h0.7V553.7z"/>
        <path d="M140.6,550.1c-0.2-0.3-0.6-0.6-1.2-0.6c-1.1,0-1.8,0.8-1.8,1.9s0.7,1.9,1.8,1.9c0.5,0,0.9-0.3,1.2-0.6l0.5,0.4 c-0.5,0.5-1.1,0.8-1.7,0.8c-1.5,0-2.5-1-2.5-2.5s0.9-2.5,2.5-2.5c0.6,0,1.2,0.3,1.7,0.8L140.6,550.1z"/>
        <path d="M142.7,551.1l2.2-2.1h1l-2.3,2.1l2.6,2.5h-1l-2.4-2.5v2.5H142v-7.6h0.7V551.1z"/>
        <path d="M147.3,551.5c0.1,0.9,0.8,1.7,1.7,1.7c0.7,0,1.2-0.4,1.5-0.8l0.5,0.4c-0.5,0.7-1.2,1-2,1c-1.4,0-2.4-1-2.4-2.5 s1-2.5,2.4-2.5c1.4,0,2.2,1.1,2.2,2.3v0.3H147.3z M150.5,551c0-0.9-0.6-1.5-1.5-1.5c-0.9,0-1.6,0.7-1.6,1.5H150.5z"/>
        <path d="M152.5,550.5c0-0.4,0-0.8,0-1.5h0.6v0.9h0c0.2-0.5,0.7-1,1.5-1c0.2,0,0.3,0,0.5,0.1l-0.1,0.6c-0.1,0-0.2,0-0.4,0 c-1,0-1.4,0.9-1.4,1.5v2.6h-0.7V550.5z"/>
        <path d="M163.2,553.7h-0.7v-0.8h0c-0.4,0.6-1.2,0.9-1.8,0.9c-1.5,0-2.5-1-2.5-2.5s1-2.5,2.5-2.5c0.6,0,1.4,0.3,1.8,0.9h0v-3.7 h0.7V553.7z M160.7,553.2c1.1,0,1.9-0.8,1.9-1.9c0-1-0.8-1.9-1.9-1.9c-1.1,0-1.8,0.8-1.8,1.9 C158.9,552.4,159.6,553.2,160.7,553.2z"/>
        <path d="M165.1,551.5c0.1,0.9,0.8,1.7,1.7,1.7c0.7,0,1.2-0.4,1.5-0.8l0.5,0.4c-0.5,0.7-1.2,1-2,1c-1.4,0-2.4-1-2.4-2.5 s1-2.5,2.4-2.5c1.4,0,2.2,1.1,2.2,2.3v0.3H165.1z M168.3,551c0-0.9-0.6-1.5-1.5-1.5c-0.9,0-1.6,0.7-1.6,1.5H168.3z"/>
        <path d="M172.7,550.1c-0.2-0.4-0.5-0.6-1-0.6c-0.5,0-1,0.2-1,0.7c0,0.4,0.3,0.6,0.9,0.7l0.7,0.2c0.6,0.2,1.1,0.6,1.1,1.3 c0,1-0.9,1.4-1.8,1.4c-0.7,0-1.4-0.2-1.8-0.9l0.6-0.4c0.3,0.4,0.7,0.7,1.2,0.7c0.5,0,1.1-0.2,1.1-0.8c0-0.5-0.4-0.6-0.9-0.7 l-0.6-0.2c-0.3-0.1-1.2-0.3-1.2-1.2c0-1,0.8-1.4,1.7-1.4c0.6,0,1.3,0.2,1.6,0.8L172.7,550.1z"/>
        <path d="M174.9,547.7c-0.2,0-0.5-0.2-0.5-0.5c0-0.3,0.2-0.5,0.5-0.5s0.5,0.2,0.5,0.5C175.4,547.5,175.2,547.7,174.9,547.7z M175.2,553.7h-0.7V549h0.7V553.7z"/>
        <path d="M177.2,554.6c0.4,0.5,1,0.9,1.8,0.9c1.3,0,1.8-0.8,1.8-1.8v-0.8h0c-0.4,0.6-1.1,0.9-1.7,0.9c-1.3,0-2.4-1-2.4-2.4 c0-1.4,1-2.4,2.4-2.4c0.6,0,1.3,0.2,1.8,0.9h0V549h0.7v4.6c0,1-0.4,2.4-2.5,2.4c-0.9,0-1.6-0.3-2.2-0.9L177.2,554.6z M179.1,553.1c1,0,1.8-0.7,1.8-1.8c0-1-0.7-1.8-1.8-1.8c-1,0-1.7,0.8-1.7,1.8S178.1,553.1,179.1,553.1z"/>
        <path d="M183.6,549c0,0.2,0,0.5,0,0.8h0c0.3-0.5,0.9-0.9,1.6-0.9c1.2,0,1.8,0.7,1.8,1.8v3h-0.7v-2.6c0-1-0.3-1.6-1.3-1.6 c-0.1,0-1.4,0.1-1.4,1.8v2.4h-0.7v-3.6c0-0.2,0-0.7-0.1-1H183.6z"/>
        <path d="M80.2,571.2c-1.4,0-2.5-1-2.5-2.5s1-2.5,2.5-2.5c1.5,0,2.5,1,2.5,2.5S81.7,571.2,80.2,571.2z M80.2,566.9 c-1.1,0-1.8,0.8-1.8,1.9c0,1,0.7,1.9,1.8,1.9c1.1,0,1.8-0.8,1.8-1.9C82,567.7,81.3,566.9,80.2,566.9z"/>
        <path d="M84.5,566.4c0,0.2,0,0.5,0,0.8h0c0.3-0.5,0.9-0.9,1.6-0.9c1.2,0,1.8,0.7,1.8,1.8v3h-0.7v-2.6c0-1-0.3-1.6-1.3-1.6 c-0.1,0-1.4,0.1-1.4,1.8v2.4h-0.7v-3.6c0-0.2,0-0.7-0.1-1H84.5z"/>
        <path d="M91.9,567h-1.3v2.8c0,0.7,0.3,0.8,0.7,0.8c0.2,0,0.5-0.1,0.7-0.2l0,0.6c-0.2,0.1-0.6,0.2-0.9,0.2c-0.5,0-1.2-0.2-1.2-1.2 V567h-1v-0.6h1v-1.3h0.7v1.3h1.3V567z"/>
        <path d="M95,571.2c-1.4,0-2.5-1-2.5-2.5s1-2.5,2.5-2.5c1.5,0,2.5,1,2.5,2.5S96.5,571.2,95,571.2z M95,566.9 c-1.1,0-1.8,0.8-1.8,1.9c0,1,0.7,1.9,1.8,1.9c1.1,0,1.8-0.8,1.8-1.9C96.8,567.7,96.1,566.9,95,566.9z"/>
        <path d="M103.9,567h-1.3v2.8c0,0.7,0.3,0.8,0.7,0.8c0.2,0,0.5-0.1,0.7-0.2l0,0.6c-0.2,0.1-0.6,0.2-0.9,0.2 c-0.5,0-1.2-0.2-1.2-1.2V567h-1v-0.6h1v-1.3h0.7v1.3h1.3V567z"/>
        <path d="M104.8,563.5h0.7v3.6h0c0.3-0.5,0.9-0.9,1.6-0.9c1.2,0,1.8,0.7,1.8,1.8v3h-0.7v-2.6c0-1-0.3-1.6-1.3-1.6 c-0.1,0-1.4,0.1-1.4,1.8v2.4h-0.7V563.5z"/>
        <path d="M110.8,568.9c0.1,0.9,0.8,1.7,1.7,1.7c0.7,0,1.2-0.4,1.5-0.8l0.5,0.4c-0.5,0.7-1.2,1-2,1c-1.4,0-2.4-1-2.4-2.5 s1-2.5,2.4-2.5c1.4,0,2.2,1.1,2.2,2.3v0.3H110.8z M114,568.4c0-0.9-0.6-1.5-1.5-1.5c-0.9,0-1.6,0.7-1.6,1.5H114z"/>
        <path d="M121.1,564h0.9l3,7.1h-1.1l-0.7-1.7h-3.4l-0.7,1.7H118L121.1,564z M122.8,568.5l-1.3-3.2h0l-1.3,3.2H122.8z"/>
        <path d="M125.7,566.3h0.9v0.7h0c0.2-0.5,0.8-0.8,1.4-0.8c0.1,0,0.3,0,0.4,0.1l0,1c-0.1,0-0.3-0.1-0.4-0.1c-0.9,0-1.4,0.5-1.4,1.5 v2.4h-0.9V566.3z"/>
        <path d="M131.9,567.1h-1.3v2.1c0,0.5,0,1.1,0.7,1.1c0.2,0,0.5,0,0.6-0.1v0.8c-0.2,0.1-0.6,0.2-0.8,0.2c-1.4,0-1.4-0.8-1.4-1.6 v-2.5h-1v-0.8h1V565h0.9v1.3h1.3V567.1z"/>
        <path d="M132.5,566.3h1l1.1,3.5h0l1.1-3.5h0.9l1.2,3.5h0l1-3.5h0.9l-1.5,4.7h-0.9l-1.2-3.5h0l-1.1,3.5h-1L132.5,566.3z"/>
        <path d="M143,566.2c1.4,0,2.5,1.1,2.5,2.5c0,1.4-1.1,2.5-2.5,2.5s-2.5-1.1-2.5-2.5C140.5,567.3,141.6,566.2,143,566.2z M143,570.3c1,0,1.6-0.7,1.6-1.6c0-1-0.6-1.6-1.6-1.6s-1.6,0.7-1.6,1.6C141.4,569.7,142,570.3,143,570.3z"/>
        <path d="M146.6,566.3h0.9v0.7h0c0.2-0.5,0.8-0.8,1.4-0.8c0.1,0,0.3,0,0.4,0.1l0,1c-0.1,0-0.3-0.1-0.4-0.1c-0.9,0-1.4,0.5-1.4,1.5 v2.4h-0.9V566.3z"/>
        <path d="M150.3,563.5h0.9v4.9l2-2h1.2l-2.2,2.1l2.4,2.6h-1.3l-2.2-2.5v2.5h-0.9V563.5z"/>
        <path d="M159.2,571.1h-0.7v-7.6h0.7V571.1z"/>
        <path d="M163.7,568.2v-0.1c0-0.8-0.4-1.2-1.2-1.2c-0.5,0-1,0.2-1.4,0.5l-0.4-0.5c0.4-0.4,1.1-0.7,2-0.7c0.9,0,1.7,0.5,1.7,1.7 v2.1c0,0.4,0,0.8,0.1,1h-0.6c0-0.2-0.1-0.5-0.1-0.8h0c-0.4,0.6-0.9,0.9-1.6,0.9c-0.8,0-1.6-0.5-1.6-1.4c0-1.5,1.8-1.6,2.9-1.6 H163.7z M163.4,568.7c-0.7,0-2.2,0.1-2.2,1c0,0.6,0.6,0.9,1.1,0.9c1,0,1.4-0.7,1.4-1.5v-0.3H163.4z"/>
        <path d="M167.7,570.3l1.4-3.9h0.8l-2.3,5.9c-0.3,0.7-0.7,1.2-1.5,1.2c-0.2,0-0.4,0-0.6-0.1l0.1-0.6c0.1,0.1,0.3,0.1,0.5,0.1 c0.5,0,0.7-0.3,0.9-0.8l0.3-0.9l-1.9-4.7h0.8L167.7,570.3z"/>
        <path d="M171.2,568.9c0.1,0.9,0.8,1.7,1.7,1.7c0.7,0,1.2-0.4,1.5-0.8l0.5,0.4c-0.5,0.7-1.2,1-2,1c-1.4,0-2.4-1-2.4-2.5 s1-2.5,2.4-2.5c1.4,0,2.2,1.1,2.2,2.3v0.3H171.2z M174.4,568.4c0-0.9-0.6-1.5-1.5-1.5c-0.9,0-1.6,0.7-1.6,1.5H174.4z"/>
        <path d="M176.4,567.8c0-0.4,0-0.8,0-1.5h0.6v0.9h0c0.2-0.5,0.7-1,1.5-1c0.2,0,0.3,0,0.5,0.1l-0.1,0.6c-0.1,0-0.2,0-0.4,0 c-1,0-1.4,0.9-1.4,1.5v2.6h-0.7V567.8z"/>
        <path d="M180.3,571.1c-0.3,0-0.5-0.3-0.5-0.5c0-0.3,0.2-0.5,0.5-0.5s0.5,0.3,0.5,0.5C180.8,570.9,180.6,571.1,180.3,571.1z"/>
      </g>
      <g class="st5">
        <g>
          <path d="M62.4,553.3h-0.7v-6.2l-1.3,1.1l-0.4-0.5l1.8-1.5h0.6V553.3z"/>
        </g>
      </g>
    </g>
    <g class="st3">
      <circle class="st10" cx="245.9" cy="549.4" r="8.5"/>
      <g class="st5">
        <path d="M263,553.7h-0.7v-7.1h2.2c1.4,0,2.3,0.6,2.3,1.9c0,1-0.6,1.7-1.8,1.8l2,3.4h-0.9l-1.9-3.3H263V553.7z M263,549.8h1.3 c1.3,0,1.7-0.6,1.7-1.2s-0.4-1.2-1.7-1.2H263V549.8z"/>
        <path d="M268.4,551.5c0.1,0.9,0.8,1.7,1.7,1.7c0.7,0,1.2-0.4,1.5-0.8l0.5,0.4c-0.5,0.7-1.2,1-2,1c-1.4,0-2.4-1-2.4-2.5 s1-2.5,2.4-2.5c1.4,0,2.2,1.1,2.2,2.3v0.3H268.4z M271.6,551c0-0.9-0.6-1.5-1.5-1.5c-0.9,0-1.6,0.7-1.6,1.5H271.6z"/>
        <path d="M273.6,549h0.7v0.8h0c0.4-0.6,1.2-0.9,1.8-0.9c1.5,0,2.5,1,2.5,2.5s-1,2.5-2.5,2.5c-0.6,0-1.4-0.3-1.8-0.9h0v3.7h-0.7 V549z M276,549.5c-1.1,0-1.9,0.8-1.9,1.9c0,1,0.8,1.9,1.9,1.9c1.1,0,1.8-0.8,1.8-1.9C277.8,550.3,277.1,549.5,276,549.5z"/>
        <path d="M281.9,553.8c-1.4,0-2.5-1-2.5-2.5s1-2.5,2.5-2.5c1.5,0,2.5,1,2.5,2.5S283.4,553.8,281.9,553.8z M281.9,549.5 c-1.1,0-1.8,0.8-1.8,1.9c0,1,0.7,1.9,1.8,1.9c1.1,0,1.8-0.8,1.8-1.9C283.7,550.3,283,549.5,281.9,549.5z"/>
        <path d="M288.1,550.1c-0.2-0.4-0.5-0.6-1-0.6c-0.5,0-1,0.2-1,0.7c0,0.4,0.3,0.6,0.9,0.7l0.7,0.2c0.6,0.2,1.1,0.6,1.1,1.3 c0,1-0.9,1.4-1.8,1.4c-0.7,0-1.4-0.2-1.8-0.9l0.6-0.4c0.3,0.4,0.7,0.7,1.2,0.7c0.5,0,1.1-0.2,1.1-0.8c0-0.5-0.4-0.6-0.9-0.7 l-0.6-0.2c-0.3-0.1-1.2-0.3-1.2-1.2c0-1,0.8-1.4,1.7-1.4c0.6,0,1.3,0.2,1.6,0.8L288.1,550.1z"/>
        <path d="M290.3,547.7c-0.2,0-0.5-0.2-0.5-0.5c0-0.3,0.2-0.5,0.5-0.5s0.5,0.2,0.5,0.5C290.8,547.5,290.6,547.7,290.3,547.7z M290.7,553.7H290V549h0.7V553.7z"/>
        <path d="M294.7,549.6h-1.3v2.8c0,0.7,0.3,0.8,0.7,0.8c0.2,0,0.5-0.1,0.7-0.2l0,0.6c-0.2,0.1-0.6,0.2-0.9,0.2 c-0.5,0-1.2-0.2-1.2-1.2v-2.9h-1V549h1v-1.3h0.7v1.3h1.3V549.6z"/>
        <path d="M296,547.7c-0.2,0-0.5-0.2-0.5-0.5c0-0.3,0.2-0.5,0.5-0.5s0.5,0.2,0.5,0.5C296.5,547.5,296.3,547.7,296,547.7z M296.4,553.7h-0.7V549h0.7V553.7z"/>
        <path d="M300.2,553.8c-1.4,0-2.5-1-2.5-2.5s1-2.5,2.5-2.5c1.5,0,2.5,1,2.5,2.5S301.7,553.8,300.2,553.8z M300.2,549.5 c-1.1,0-1.8,0.8-1.8,1.9c0,1,0.7,1.9,1.8,1.9c1.1,0,1.8-0.8,1.8-1.9C302,550.3,301.3,549.5,300.2,549.5z"/>
        <path d="M304.5,549c0,0.2,0,0.5,0,0.8h0c0.3-0.5,0.9-0.9,1.6-0.9c1.2,0,1.8,0.7,1.8,1.8v3h-0.7v-2.6c0-1-0.3-1.6-1.3-1.6 c-0.1,0-1.4,0.1-1.4,1.8v2.4h-0.7v-3.6c0-0.2,0-0.7-0.1-1H304.5z"/>
        <path d="M315.2,550.8v-0.1c0-0.8-0.4-1.2-1.2-1.2c-0.5,0-1,0.2-1.4,0.5l-0.4-0.5c0.4-0.4,1.1-0.7,2-0.7c0.9,0,1.7,0.5,1.7,1.7 v2.1c0,0.4,0,0.8,0.1,1h-0.6c0-0.2-0.1-0.5-0.1-0.8h0c-0.4,0.6-0.9,0.9-1.6,0.9c-0.8,0-1.6-0.5-1.6-1.4c0-1.5,1.8-1.6,2.9-1.6 H315.2z M314.9,551.4c-0.7,0-2.2,0.1-2.2,1c0,0.6,0.6,0.9,1.1,0.9c1,0,1.4-0.7,1.4-1.5v-0.3H314.9z"/>
        <path d="M318.1,549c0,0.2,0,0.5,0,0.8h0c0.3-0.5,0.9-0.9,1.6-0.9c1.2,0,1.8,0.7,1.8,1.8v3h-0.7v-2.6c0-1-0.3-1.6-1.3-1.6 c-0.1,0-1.4,0.1-1.4,1.8v2.4h-0.7v-3.6c0-0.2,0-0.7,0-1H318.1z"/>
        <path d="M327.7,553.7H327v-0.8h0c-0.4,0.6-1.2,0.9-1.8,0.9c-1.5,0-2.5-1-2.5-2.5s1-2.5,2.5-2.5c0.6,0,1.4,0.3,1.8,0.9h0v-3.7h0.7 V553.7z M325.2,553.2c1.1,0,1.9-0.8,1.9-1.9c0-1-0.8-1.9-1.9-1.9c-1.1,0-1.8,0.8-1.8,1.9C323.4,552.4,324.1,553.2,325.2,553.2z"/>
        <path d="M334.4,550.1c-0.2-0.4-0.5-0.6-1-0.6c-0.5,0-1,0.2-1,0.7c0,0.4,0.3,0.6,0.9,0.7l0.7,0.2c0.6,0.2,1.1,0.6,1.1,1.3 c0,1-0.9,1.4-1.8,1.4c-0.7,0-1.4-0.2-1.8-0.9l0.6-0.4c0.3,0.4,0.7,0.7,1.2,0.7c0.5,0,1.1-0.2,1.1-0.8c0-0.5-0.4-0.6-0.9-0.7 l-0.6-0.2c-0.3-0.1-1.2-0.3-1.2-1.2c0-1,0.8-1.4,1.7-1.4c0.6,0,1.3,0.2,1.6,0.8L334.4,550.1z"/>
        <path d="M339.5,550.1c-0.2-0.3-0.7-0.6-1.2-0.6c-1.1,0-1.8,0.8-1.8,1.9s0.7,1.9,1.8,1.9c0.5,0,0.9-0.3,1.2-0.6l0.5,0.4 c-0.5,0.5-1.1,0.8-1.7,0.8c-1.5,0-2.5-1-2.5-2.5s0.9-2.5,2.5-2.5c0.6,0,1.2,0.3,1.7,0.8L339.5,550.1z"/>
        <path d="M344,550.8v-0.1c0-0.8-0.4-1.2-1.2-1.2c-0.5,0-1,0.2-1.4,0.5l-0.4-0.5c0.4-0.4,1.1-0.7,2-0.7c0.9,0,1.7,0.5,1.7,1.7v2.1 c0,0.4,0,0.8,0.1,1h-0.6c0-0.2-0.1-0.5-0.1-0.8h0c-0.4,0.6-0.9,0.9-1.6,0.9c-0.8,0-1.6-0.5-1.6-1.4c0-1.5,1.8-1.6,2.9-1.6H344z M343.6,551.4c-0.7,0-2.2,0.1-2.2,1c0,0.6,0.6,0.9,1.1,0.9c1,0,1.4-0.7,1.4-1.5v-0.3H343.6z"/>
        <path d="M347,553.7h-0.7v-7.6h0.7V553.7z"/>
        <path d="M349,551.5c0.1,0.9,0.8,1.7,1.7,1.7c0.7,0,1.2-0.4,1.5-0.8l0.5,0.4c-0.5,0.7-1.2,1-2,1c-1.4,0-2.4-1-2.4-2.5 s1-2.5,2.4-2.5c1.4,0,2.2,1.1,2.2,2.3v0.3H349z M352.2,551c0-0.9-0.6-1.5-1.5-1.5c-0.9,0-1.6,0.7-1.6,1.5H352.2z"/>
        <path d="M358.6,552.9l1.4-3.9h0.8l-2.3,5.9c-0.3,0.7-0.7,1.2-1.5,1.2c-0.2,0-0.4,0-0.6-0.1l0.1-0.6c0.2,0.1,0.3,0.1,0.5,0.1 c0.5,0,0.7-0.3,0.9-0.8l0.3-0.9l-1.9-4.7h0.8L358.6,552.9z"/>
        <path d="M363.9,553.8c-1.4,0-2.5-1-2.5-2.5s1-2.5,2.5-2.5c1.5,0,2.5,1,2.5,2.5S365.4,553.8,363.9,553.8z M363.9,549.5 c-1.1,0-1.8,0.8-1.8,1.9c0,1,0.7,1.9,1.8,1.9c1.1,0,1.8-0.8,1.8-1.9C365.7,550.3,365,549.5,363.9,549.5z"/>
        <path d="M371,553.7c0-0.2,0-0.5,0-0.8h0c-0.3,0.5-1,0.9-1.6,0.9c-1.2,0-1.8-0.7-1.8-1.8v-3h0.7v2.6c0,1,0.3,1.6,1.3,1.6 c0.1,0,1.4-0.1,1.4-1.8V549h0.7v3.6c0,0.2,0,0.7,0,1H371z"/>
        <path d="M373.3,550.5c0-0.4,0-0.8,0-1.5h0.6v0.9h0c0.2-0.5,0.7-1,1.5-1c0.2,0,0.3,0,0.5,0.1l-0.1,0.6c-0.1,0-0.2,0-0.4,0 c-1,0-1.4,0.9-1.4,1.5v2.6h-0.7V550.5z"/>
        <path d="M266.7,571.1h-0.7v-0.8h0c-0.4,0.6-1.2,0.9-1.8,0.9c-1.5,0-2.5-1-2.5-2.5s1-2.5,2.5-2.5c0.6,0,1.4,0.3,1.8,0.9h0v-3.7 h0.7V571.1z M264.2,570.6c1.1,0,1.9-0.8,1.9-1.9c0-1-0.8-1.9-1.9-1.9c-1.1,0-1.8,0.8-1.8,1.9 C262.5,569.8,263.1,570.6,264.2,570.6z"/>
        <path d="M268.6,568.9c0.1,0.9,0.8,1.7,1.7,1.7c0.7,0,1.2-0.4,1.5-0.8l0.5,0.4c-0.5,0.7-1.2,1-2,1c-1.4,0-2.4-1-2.4-2.5 s1-2.5,2.4-2.5c1.4,0,2.2,1.1,2.2,2.3v0.3H268.6z M271.8,568.4c0-0.9-0.6-1.5-1.5-1.5c-0.9,0-1.6,0.7-1.6,1.5H271.8z"/>
        <path d="M276.2,567.5c-0.2-0.4-0.5-0.6-1-0.6c-0.5,0-1,0.2-1,0.7c0,0.4,0.3,0.6,0.9,0.7l0.7,0.2c0.6,0.2,1.1,0.6,1.1,1.3 c0,1-0.9,1.4-1.8,1.4c-0.7,0-1.4-0.2-1.8-0.9l0.6-0.4c0.3,0.4,0.7,0.7,1.2,0.7c0.5,0,1.1-0.2,1.1-0.8c0-0.5-0.4-0.6-0.9-0.7 l-0.6-0.2c-0.3-0.1-1.2-0.3-1.2-1.2c0-1,0.8-1.4,1.7-1.4c0.6,0,1.3,0.2,1.6,0.8L276.2,567.5z"/>
        <path d="M278.5,565.1c-0.2,0-0.5-0.2-0.5-0.5c0-0.3,0.2-0.5,0.5-0.5s0.5,0.2,0.5,0.5C278.9,564.9,278.7,565.1,278.5,565.1z M278.8,571.1h-0.7v-4.7h0.7V571.1z"/>
        <path d="M280.8,572c0.4,0.5,1,0.9,1.8,0.9c1.3,0,1.8-0.8,1.8-1.8v-0.8h0c-0.4,0.6-1.1,0.9-1.7,0.9c-1.3,0-2.4-1-2.4-2.4 c0-1.4,1-2.4,2.4-2.4c0.6,0,1.3,0.2,1.8,0.9h0v-0.8h0.7v4.6c0,1-0.4,2.4-2.5,2.4c-0.9,0-1.6-0.3-2.2-0.9L280.8,572z M282.6,570.5 c1,0,1.8-0.7,1.8-1.8c0-1-0.7-1.8-1.8-1.8c-1,0-1.7,0.8-1.7,1.8S281.6,570.5,282.6,570.5z"/>
        <path d="M287.1,566.4c0,0.2,0,0.5,0,0.8h0c0.3-0.5,0.9-0.9,1.6-0.9c1.2,0,1.8,0.7,1.8,1.8v3h-0.7v-2.6c0-1-0.3-1.6-1.3-1.6 c-0.1,0-1.4,0.1-1.4,1.8v2.4h-0.7v-3.6c0-0.2,0-0.7-0.1-1H287.1z"/>
        <path d="M297.8,568.2v-0.1c0-0.8-0.4-1.2-1.2-1.2c-0.5,0-1,0.2-1.4,0.5l-0.4-0.5c0.4-0.4,1.1-0.7,2-0.7c0.9,0,1.7,0.5,1.7,1.7 v2.1c0,0.4,0,0.8,0.1,1h-0.6c0-0.2-0.1-0.5-0.1-0.8h0c-0.4,0.6-0.9,0.9-1.6,0.9c-0.8,0-1.6-0.5-1.6-1.4c0-1.5,1.8-1.6,2.9-1.6 H297.8z M297.5,568.7c-0.7,0-2.2,0.1-2.2,1c0,0.6,0.6,0.9,1.1,0.9c1,0,1.4-0.7,1.4-1.5v-0.3H297.5z"/>
        <path d="M302.5,567.5c-0.2-0.4-0.5-0.6-1-0.6c-0.5,0-1,0.2-1,0.7c0,0.4,0.3,0.6,0.9,0.7l0.7,0.2c0.6,0.2,1.1,0.6,1.1,1.3 c0,1-0.9,1.4-1.8,1.4c-0.7,0-1.4-0.2-1.8-0.9l0.6-0.4c0.3,0.4,0.7,0.7,1.2,0.7c0.5,0,1.1-0.2,1.1-0.8c0-0.5-0.4-0.6-0.9-0.7 l-0.6-0.2c-0.3-0.1-1.2-0.3-1.2-1.2c0-1,0.8-1.4,1.7-1.4c0.6,0,1.3,0.2,1.6,0.8L302.5,567.5z"/>
        <path d="M308.8,570.3l1.4-3.9h0.8l-2.3,5.9c-0.3,0.7-0.7,1.2-1.5,1.2c-0.2,0-0.4,0-0.6-0.1l0.1-0.6c0.1,0.1,0.3,0.1,0.5,0.1 c0.5,0,0.7-0.3,0.9-0.8l0.3-0.9l-1.9-4.7h0.8L308.8,570.3z"/>
        <path d="M314.1,571.2c-1.4,0-2.5-1-2.5-2.5s1-2.5,2.5-2.5c1.5,0,2.5,1,2.5,2.5S315.6,571.2,314.1,571.2z M314.1,566.9 c-1.1,0-1.8,0.8-1.8,1.9c0,1,0.7,1.9,1.8,1.9c1.1,0,1.8-0.8,1.8-1.9C315.9,567.7,315.2,566.9,314.1,566.9z"/>
        <path d="M321.2,571.1c0-0.2,0-0.5,0-0.8h0c-0.3,0.5-1,0.9-1.6,0.9c-1.2,0-1.8-0.7-1.8-1.8v-3h0.7v2.6c0,1,0.3,1.6,1.3,1.6 c0.1,0,1.4-0.1,1.4-1.8v-2.4h0.7v3.6c0,0.2,0,0.7,0,1H321.2z"/>
        <path d="M327,571.1h-0.7v-7.6h0.7V571.1z"/>
        <path d="M329,565.1c-0.2,0-0.5-0.2-0.5-0.5c0-0.3,0.2-0.5,0.5-0.5c0.2,0,0.5,0.2,0.5,0.5C329.5,564.9,329.3,565.1,329,565.1z M329.4,571.1h-0.7v-4.7h0.7V571.1z"/>
        <path d="M331.6,568.5l2.2-2.1h1l-2.3,2.1l2.6,2.5h-1l-2.4-2.5v2.5H331v-7.6h0.7V568.5z"/>
        <path d="M336.2,568.9c0.1,0.9,0.8,1.7,1.7,1.7c0.7,0,1.2-0.4,1.5-0.8l0.5,0.4c-0.5,0.7-1.2,1-2,1c-1.4,0-2.4-1-2.4-2.5 s1-2.5,2.4-2.5c1.4,0,2.2,1.1,2.2,2.3v0.3H336.2z M339.4,568.4c0-0.9-0.6-1.5-1.5-1.5c-0.9,0-1.6,0.7-1.6,1.5H339.4z"/>
        <path d="M342,571.1c-0.3,0-0.5-0.3-0.5-0.5c0-0.3,0.2-0.5,0.5-0.5c0.3,0,0.5,0.3,0.5,0.5C342.5,570.9,342.3,571.1,342,571.1z"/>
      </g>
      <g class="st5">
        <g>
          <path d="M248,553.3h-4.5v-0.8l2.8-2.9c0.4-0.4,0.9-0.9,0.9-1.6c0-0.8-0.6-1.2-1.4-1.2c-0.7,0-1.3,0.4-1.4,1.1l-0.8-0.1 c0.2-1,1-1.7,2.1-1.7c1.1,0,2.1,0.6,2.1,1.8c0,1.1-0.7,1.8-1.4,2.5l-2.2,2.2h3.7V553.3z"/>
        </g>
      </g>
    </g>
    <g class="st3">
      <circle class="st10" cx="431.8" cy="549.4" r="8.5"/>
      <g class="st5">
        <path d="M451.4,553.9c-2.1,0-3.7-1.6-3.7-3.7s1.6-3.7,3.7-3.7s3.7,1.6,3.7,3.7S453.5,553.9,451.4,553.9z M451.4,547.1 c-1.8,0-2.9,1.4-2.9,3.1s1.1,3.1,2.9,3.1s2.9-1.4,2.9-3.1S453.2,547.1,451.4,547.1z"/>
        <path d="M459.6,553.7c0-0.2,0-0.5,0-0.8h0c-0.3,0.5-0.9,0.9-1.6,0.9c-1.2,0-1.8-0.7-1.8-1.8v-3h0.7v2.6c0,1,0.3,1.6,1.3,1.6 c0.1,0,1.4-0.1,1.4-1.8V549h0.7v3.6c0,0.2,0,0.7,0,1H459.6z"/>
        <path d="M464.2,549.6h-1.3v2.8c0,0.7,0.3,0.8,0.7,0.8c0.2,0,0.5-0.1,0.7-0.2l0,0.6c-0.2,0.1-0.6,0.2-0.9,0.2 c-0.5,0-1.2-0.2-1.2-1.2v-2.9h-1V549h1v-1.3h0.7v1.3h1.3V549.6z"/>
        <path d="M466,553.7h-0.7v-7.6h0.7V553.7z"/>
        <path d="M468,547.7c-0.2,0-0.5-0.2-0.5-0.5c0-0.3,0.2-0.5,0.5-0.5s0.5,0.2,0.5,0.5C468.5,547.5,468.3,547.7,468,547.7z M468.4,553.7h-0.7V549h0.7V553.7z"/>
        <path d="M470.6,549c0,0.2,0,0.5,0,0.8h0c0.3-0.5,0.9-0.9,1.6-0.9c1.2,0,1.8,0.7,1.8,1.8v3h-0.7v-2.6c0-1-0.3-1.6-1.3-1.6 c-0.1,0-1.4,0.1-1.4,1.8v2.4h-0.7v-3.6c0-0.2,0-0.7,0-1H470.6z"/>
        <path d="M476,551.5c0.1,0.9,0.8,1.7,1.7,1.7c0.7,0,1.2-0.4,1.5-0.8l0.5,0.4c-0.5,0.7-1.2,1-2,1c-1.4,0-2.4-1-2.4-2.5 s1-2.5,2.4-2.5c1.4,0,2.2,1.1,2.2,2.3v0.3H476z M479.1,551c0-0.9-0.6-1.5-1.5-1.5c-0.9,0-1.6,0.7-1.6,1.5H479.1z"/>
        <path d="M486.1,553.8c-1.4,0-2.5-1-2.5-2.5s1-2.5,2.5-2.5c1.5,0,2.5,1,2.5,2.5S487.5,553.8,486.1,553.8z M486.1,549.5 c-1.1,0-1.8,0.8-1.8,1.9c0,1,0.7,1.9,1.8,1.9c1.1,0,1.8-0.8,1.8-1.9C487.9,550.3,487.2,549.5,486.1,549.5z"/>
        <path d="M489.8,550.5c0-0.4,0-0.8,0-1.5h0.7v0.9h0c0.2-0.5,0.7-1,1.5-1c0.2,0,0.3,0,0.5,0.1l-0.1,0.6c-0.1,0-0.2,0-0.4,0 c-1,0-1.4,0.9-1.4,1.5v2.6h-0.7V550.5z"/>
        <path d="M495.9,550.5c0-0.4,0-0.8,0-1.5h0.7v0.9h0c0.2-0.5,0.7-1,1.5-1c0.2,0,0.3,0,0.5,0.1l-0.1,0.6c-0.1,0-0.2,0-0.4,0 c-1,0-1.4,0.9-1.4,1.5v2.6h-0.7V550.5z"/>
        <path d="M502.2,550.8v-0.1c0-0.8-0.4-1.2-1.2-1.2c-0.5,0-1,0.2-1.4,0.5l-0.4-0.5c0.4-0.4,1.1-0.7,2-0.7c0.9,0,1.7,0.5,1.7,1.7 v2.1c0,0.4,0,0.8,0.1,1h-0.6c0-0.2-0.1-0.5-0.1-0.8h0c-0.4,0.6-0.9,0.9-1.6,0.9c-0.8,0-1.6-0.5-1.6-1.4c0-1.5,1.8-1.6,2.9-1.6 H502.2z M501.9,551.4c-0.7,0-2.2,0.1-2.2,1c0,0.6,0.6,0.9,1.1,0.9c1,0,1.4-0.7,1.4-1.5v-0.3H501.9z"/>
        <path d="M506.9,550.1c-0.2-0.4-0.5-0.6-1-0.6c-0.5,0-1,0.2-1,0.7c0,0.4,0.3,0.6,0.9,0.7l0.7,0.2c0.6,0.2,1.1,0.6,1.1,1.3 c0,1-0.9,1.4-1.8,1.4c-0.7,0-1.4-0.2-1.8-0.9l0.6-0.4c0.3,0.4,0.7,0.7,1.2,0.7c0.5,0,1.1-0.2,1.1-0.8c0-0.5-0.4-0.6-0.9-0.7 l-0.6-0.2c-0.3-0.1-1.2-0.3-1.2-1.2c0-1,0.8-1.4,1.7-1.4c0.6,0,1.3,0.2,1.6,0.8L506.9,550.1z"/>
        <path d="M511.1,549.6h-1.3v2.8c0,0.7,0.3,0.8,0.7,0.8c0.2,0,0.5-0.1,0.7-0.2l0,0.6c-0.2,0.1-0.6,0.2-0.9,0.2 c-0.5,0-1.2-0.2-1.2-1.2v-2.9h-1V549h1v-1.3h0.7v1.3h1.3V549.6z"/>
        <path d="M512.4,551.5c0.1,0.9,0.8,1.7,1.7,1.7c0.7,0,1.2-0.4,1.5-0.8l0.5,0.4c-0.5,0.7-1.2,1-2,1c-1.4,0-2.4-1-2.4-2.5 s1-2.5,2.4-2.5c1.4,0,2.2,1.1,2.2,2.3v0.3H512.4z M515.6,551c0-0.9-0.6-1.5-1.5-1.5c-0.9,0-1.6,0.7-1.6,1.5H515.6z"/>
        <path d="M517.6,550.5c0-0.4,0-0.8,0-1.5h0.7v0.9h0c0.2-0.5,0.7-1,1.5-1c0.2,0,0.3,0,0.5,0.1l-0.1,0.6c-0.1,0-0.2,0-0.4,0 c-1,0-1.4,0.9-1.4,1.5v2.6h-0.7V550.5z"/>
        <path d="M521.3,547.7c-0.2,0-0.5-0.2-0.5-0.5c0-0.3,0.2-0.5,0.5-0.5c0.2,0,0.5,0.2,0.5,0.5C521.8,547.5,521.6,547.7,521.3,547.7z M521.7,553.7H521V549h0.7V553.7z"/>
        <path d="M526.5,549.5l-2.7,3.6h2.8v0.6h-3.8v-0.5l2.7-3.6h-2.6V549h3.6V549.5z"/>
        <path d="M528,551.5c0.1,0.9,0.8,1.7,1.7,1.7c0.7,0,1.2-0.4,1.5-0.8l0.5,0.4c-0.5,0.7-1.2,1-2,1c-1.4,0-2.4-1-2.4-2.5 s1-2.5,2.4-2.5c1.4,0,2.2,1.1,2.2,2.3v0.3H528z M531.1,551c0-0.9-0.6-1.5-1.5-1.5c-0.9,0-1.6,0.7-1.6,1.5H531.1z"/>
        <path d="M537.6,552.9l1.4-3.9h0.8l-2.3,5.9c-0.3,0.7-0.7,1.2-1.5,1.2c-0.2,0-0.4,0-0.6-0.1l0.1-0.6c0.1,0.1,0.3,0.1,0.5,0.1 c0.5,0,0.7-0.3,0.9-0.8l0.3-0.9l-1.9-4.7h0.8L537.6,552.9z"/>
        <path d="M542.9,553.8c-1.4,0-2.5-1-2.5-2.5s1-2.5,2.5-2.5c1.5,0,2.5,1,2.5,2.5S544.4,553.8,542.9,553.8z M542.9,549.5 c-1.1,0-1.8,0.8-1.8,1.9c0,1,0.7,1.9,1.8,1.9c1.1,0,1.8-0.8,1.8-1.9C544.7,550.3,544,549.5,542.9,549.5z"/>
        <path d="M550,553.7c0-0.2,0-0.5,0-0.8h0c-0.3,0.5-0.9,0.9-1.6,0.9c-1.2,0-1.8-0.7-1.8-1.8v-3h0.7v2.6c0,1,0.3,1.6,1.3,1.6 c0.1,0,1.4-0.1,1.4-1.8V549h0.7v3.6c0,0.2,0,0.7,0,1H550z"/>
        <path d="M552.2,550.5c0-0.4,0-0.8,0-1.5h0.7v0.9h0c0.2-0.5,0.7-1,1.5-1c0.2,0,0.3,0,0.5,0.1l-0.1,0.6c-0.1,0-0.2,0-0.4,0 c-1,0-1.4,0.9-1.4,1.5v2.6h-0.7V550.5z"/>
        <path d="M450.1,567H449v4.1h-0.7V567h-1v-0.6h1v-1.3c0-1.2,0.6-1.7,1.6-1.7c0.2,0,0.4,0,0.6,0.1l-0.1,0.6c-0.2,0-0.3-0.1-0.5-0.1 c-0.7,0-0.8,0.5-0.8,1.2v1.2h1.1V567z"/>
        <path d="M453.1,571.2c-1.4,0-2.5-1-2.5-2.5s1-2.5,2.5-2.5c1.5,0,2.5,1,2.5,2.5S454.6,571.2,453.1,571.2z M453.1,566.9 c-1.1,0-1.8,0.8-1.8,1.9c0,1,0.7,1.9,1.8,1.9c1.1,0,1.8-0.8,1.8-1.9C454.9,567.7,454.2,566.9,453.1,566.9z"/>
        <path d="M457.4,566.4c0,0.2,0,0.5,0,0.8h0c0.3-0.5,0.9-0.9,1.6-0.9c1.2,0,1.8,0.7,1.8,1.8v3h-0.7v-2.6c0-1-0.3-1.6-1.3-1.6 c-0.1,0-1.4,0.1-1.4,1.8v2.4h-0.7v-3.6c0-0.2,0-0.7,0-1H457.4z"/>
        <path d="M464.8,567h-1.3v2.8c0,0.7,0.3,0.8,0.7,0.8c0.2,0,0.5-0.1,0.7-0.2l0,0.6c-0.2,0.1-0.6,0.2-0.9,0.2 c-0.5,0-1.2-0.2-1.2-1.2V567h-1v-0.6h1v-1.3h0.7v1.3h1.3V567z"/>
        <path d="M468.2,567.5c-0.2-0.4-0.5-0.6-1-0.6c-0.5,0-1,0.2-1,0.7c0,0.4,0.3,0.6,0.9,0.7l0.7,0.2c0.6,0.2,1.1,0.6,1.1,1.3 c0,1-0.9,1.4-1.8,1.4c-0.7,0-1.4-0.2-1.8-0.9l0.6-0.4c0.3,0.4,0.7,0.7,1.2,0.7c0.5,0,1.1-0.2,1.1-0.8c0-0.5-0.4-0.6-0.9-0.7 l-0.6-0.2c-0.3-0.1-1.2-0.3-1.2-1.2c0-1,0.8-1.4,1.7-1.4c0.6,0,1.3,0.2,1.6,0.8L468.2,567.5z"/>
        <path d="M475.7,568.2v-0.1c0-0.8-0.4-1.2-1.2-1.2c-0.5,0-1,0.2-1.4,0.5l-0.4-0.5c0.4-0.4,1.1-0.7,2-0.7c0.9,0,1.7,0.5,1.7,1.7 v2.1c0,0.4,0,0.8,0.1,1h-0.6c0-0.2-0.1-0.5-0.1-0.8h0c-0.4,0.6-0.9,0.9-1.6,0.9c-0.8,0-1.6-0.5-1.6-1.4c0-1.5,1.8-1.6,2.9-1.6 H475.7z M475.4,568.7c-0.7,0-2.2,0.1-2.2,1c0,0.6,0.6,0.9,1.1,0.9c1,0,1.4-0.7,1.4-1.5v-0.3H475.4z"/>
        <path d="M478.6,566.4c0,0.2,0,0.5,0,0.8h0c0.3-0.5,0.9-0.9,1.6-0.9c1.2,0,1.8,0.7,1.8,1.8v3h-0.7v-2.6c0-1-0.3-1.6-1.3-1.6 c-0.1,0-1.4,0.1-1.4,1.8v2.4h-0.7v-3.6c0-0.2,0-0.7,0-1H478.6z"/>
        <path d="M488.2,571.1h-0.7v-0.8h0c-0.4,0.6-1.2,0.9-1.8,0.9c-1.5,0-2.5-1-2.5-2.5s1-2.5,2.5-2.5c0.6,0,1.4,0.3,1.8,0.9h0v-3.7 h0.7V571.1z M485.7,570.6c1.1,0,1.9-0.8,1.9-1.9c0-1-0.8-1.9-1.9-1.9c-1.1,0-1.8,0.8-1.8,1.9 C483.9,569.8,484.6,570.6,485.7,570.6z"/>
        <path d="M495.8,567.5c-0.2-0.3-0.7-0.6-1.2-0.6c-1.1,0-1.8,0.8-1.8,1.9s0.7,1.9,1.8,1.9c0.5,0,0.9-0.3,1.2-0.6l0.5,0.4 c-0.5,0.5-1.1,0.8-1.7,0.8c-1.5,0-2.5-1-2.5-2.5s0.9-2.5,2.5-2.5c0.6,0,1.2,0.3,1.7,0.8L495.8,567.5z"/>
        <path d="M498,571.1h-0.7v-7.6h0.7V571.1z"/>
        <path d="M500.1,565.1c-0.2,0-0.5-0.2-0.5-0.5c0-0.3,0.2-0.5,0.5-0.5s0.5,0.2,0.5,0.5C500.6,564.9,500.3,565.1,500.1,565.1z M500.4,571.1h-0.7v-4.7h0.7V571.1z"/>
        <path d="M505.4,567.5c-0.2-0.3-0.6-0.6-1.2-0.6c-1.1,0-1.8,0.8-1.8,1.9s0.7,1.9,1.8,1.9c0.5,0,0.9-0.3,1.2-0.6l0.5,0.4 c-0.5,0.5-1.1,0.8-1.7,0.8c-1.5,0-2.5-1-2.5-2.5s0.9-2.5,2.5-2.5c0.6,0,1.2,0.3,1.7,0.8L505.4,567.5z"/>
        <path d="M507.5,568.5l2.2-2.1h1l-2.3,2.1l2.6,2.5h-1l-2.4-2.5v2.5h-0.7v-7.6h0.7V568.5z"/>
        <path d="M514.8,569.6c0.3,0.5,0.9,0.8,1.5,0.8c0.6,0,1.4-0.4,1.4-1.2c0-1.6-3.5-0.6-3.5-3.4c0-0.8,0.7-2,2.4-2 c0.8,0,1.5,0.2,2,0.8l-0.8,0.7c-0.2-0.4-0.7-0.6-1.3-0.6c-1.1,0-1.4,0.6-1.4,1.1c0,1.8,3.5,0.7,3.5,3.3c0,1.4-1.1,2.2-2.5,2.2 c-0.9,0-1.8-0.3-2.3-1L514.8,569.6z"/>
        <path d="M520,566.9c0.5-0.5,1.2-0.7,1.9-0.7c1.4,0,2,0.8,2,1.6v2.4c0,0.3,0,0.6,0,0.9h-0.8c0-0.2,0-0.5,0-0.7h0 c-0.4,0.6-0.9,0.8-1.7,0.8c-0.9,0-1.6-0.5-1.6-1.4c0-1.2,1.2-1.6,2.6-1.6h0.7v-0.2c0-0.5-0.4-1-1.1-1c-0.7,0-1,0.3-1.3,0.5 L520,566.9z M522.5,568.8c-0.8,0-1.9,0.1-1.9,0.9c0,0.5,0.4,0.8,1,0.8c1,0,1.3-0.7,1.3-1.4v-0.3H522.5z"/>
        <path d="M524.6,566.3h1l1.4,3.6l1.4-3.6h1l-1.9,4.7h-1L524.6,566.3z"/>
        <path d="M530.8,569c0,0.8,0.8,1.4,1.6,1.4c0.5,0,0.9-0.3,1.3-0.7l0.7,0.5c-0.5,0.6-1.2,1-2.1,1c-1.5,0-2.4-1.1-2.4-2.5 c0-1.4,1-2.5,2.4-2.5c1.7,0,2.3,1.3,2.3,2.5v0.3H530.8z M533.6,568.3c0-0.8-0.5-1.4-1.4-1.4c-0.9,0-1.5,0.8-1.5,1.4H533.6z"/>
        <path d="M536.4,571.1c-0.3,0-0.5-0.3-0.5-0.5c0-0.3,0.2-0.5,0.5-0.5c0.3,0,0.5,0.3,0.5,0.5C536.9,570.9,536.7,571.1,536.4,571.1z "/>
      </g>
      <g class="st5">
        <g>
          <path d="M431,549.2h0.4c0.8,0,1.5-0.4,1.5-1.3c0-0.8-0.5-1.2-1.3-1.2c-0.6,0-1.1,0.3-1.3,0.8l-0.6-0.3c0.4-0.8,1.1-1.1,2-1.1 c1.1,0,2,0.7,2,1.8c0,0.8-0.5,1.4-1.2,1.6l0,0c0.8,0.2,1.4,0.9,1.4,1.8c0,1.3-1,2-2.3,2c-1,0-1.8-0.4-2.2-1.4l0.8-0.2 c0.2,0.7,0.7,1,1.5,1c0.8,0,1.5-0.6,1.5-1.4c0-1.1-0.9-1.4-1.8-1.4H431V549.2z"/>
        </g>
      </g>
    </g>
    <g class="st3">
      <rect x="59.1" y="630.1" class="st11" width="122.9" height="19"/>
      <polygon class="st11" points="101.3,605.6 51.9,605.6 51.9,679.9 189.3,679.9 189.3,622.9 101.3,622.9 &#9;&#9;"/>
      <line class="st11" x1="78.5" y1="630.1" x2="78.5" y2="649.2"/>
      <line class="st11" x1="97.8" y1="630.1" x2="97.8" y2="649.2"/>
      <path class="st11" d="M101.3,622.9"/>
      <polyline class="st11" points="101.3,605.6 189.3,605.6 189.3,622.9 &#9;&#9;"/>
      <line class="st11" x1="174.2" y1="613.3" x2="182.2" y2="613.3"/>
      <line class="st11" x1="174.2" y1="615.1" x2="182.2" y2="615.1"/>
      <line class="st11" x1="174.2" y1="616.9" x2="182.2" y2="616.9"/>
      <line class="st11" x1="174.2" y1="611.5" x2="182.2" y2="611.5"/>
      <rect x="59.1" y="649.2" class="st12" width="122.9" height="19"/>
      <line class="st10" x1="59.1" y1="649.2" x2="182" y2="649.2"/>
      <g class="st5">
        <path d="M115.8,655h0.8l3,7.1h-1l-0.7-1.7h-3.5l-0.7,1.7h-0.9L115.8,655z M116.2,656.1L116.2,656.1l-1.5,3.5h2.9L116.2,656.1z"/>
        <path d="M120.4,658.5c0-0.4,0-0.8,0-1.1h0.7c0,0.2,0,0.5,0,0.8h0c0.2-0.5,0.8-0.9,1.6-0.9c0.1,0,0.2,0,0.3,0l-0.1,0.8 c-0.1,0-0.3-0.1-0.4-0.1c-0.9,0-1.4,0.7-1.4,1.7v2.3h-0.8V658.5z"/>
        <path d="M126.5,658.1h-1.4v2.3c0,0.6,0,1.1,0.7,1.1c0.2,0,0.5,0,0.7-0.2l0,0.7c-0.3,0.1-0.6,0.2-0.9,0.2c-1.1,0-1.3-0.6-1.3-1.6 v-2.6h-1v-0.7h1v-1.3h0.8v1.3h1.4V658.1z"/>
        <path d="M132.5,662.1h-0.8l-1.3-3.6h0l-1.2,3.6h-0.8l-1.5-4.7h0.9l1.1,3.6h0l1.2-3.6h0.8l1.2,3.6h0l1.1-3.6h0.8L132.5,662.1z"/>
        <path d="M137.1,657.3c1.4,0,2.5,1,2.5,2.5s-1.1,2.5-2.5,2.5c-1.4,0-2.5-1-2.5-2.5S135.6,657.3,137.1,657.3z M137.1,661.5 c1,0,1.7-0.8,1.7-1.7s-0.6-1.7-1.7-1.7c-1,0-1.7,0.8-1.7,1.7S136.1,661.5,137.1,661.5z"/>
        <path d="M140.8,658.5c0-0.4,0-0.8,0-1.1h0.7c0,0.2,0,0.5,0,0.8h0c0.2-0.5,0.8-0.9,1.6-0.9c0.1,0,0.2,0,0.3,0l0,0.8 c-0.1,0-0.3-0.1-0.4-0.1c-0.9,0-1.4,0.7-1.4,1.7v2.3h-0.8V658.5z"/>
        <path d="M144.3,654.5h0.8v4.9l2.1-2.1h1.1l-2.3,2.1l2.5,2.5h-1.1l-2.3-2.5v2.5h-0.8V654.5z"/>
      </g>
      <line class="st10" x1="78.5" y1="649.2" x2="78.5" y2="668.2"/>
      <line class="st10" x1="97.8" y1="649.2" x2="97.8" y2="668.2"/>
      <polygon class="st5" points="107.4,658.7 103.6,662 103.6,655.4 &#9;&#9;"/>
      <path class="st5" d="M72.6,658.7c0,0-1.5,2.7-3.8,2.7c-2.3,0-3.8-2.7-3.8-2.7s1.5-2.7,3.8-2.7C71.1,656,72.6,658.7,72.6,658.7z M70.7,658.7c0-1-0.8-1.9-1.9-1.9c-1,0-1.9,0.8-1.9,1.9c0,1,0.8,1.9,1.9,1.9C69.8,660.6,70.7,659.7,70.7,658.7z M68.8,657.9 c-0.5,0-0.8,0.4-0.8,0.8c0,0.5,0.4,0.8,0.8,0.8c0.5,0,0.8-0.4,0.8-0.8C69.6,658.2,69.2,657.9,68.8,657.9z"/>
      <polygon class="st5" points="177.3,649.2 182,649.2 182,653.9 &#9;&#9;"/>
      <g class="st5">
        <path d="M64.3,611.7h0.8v6.3h3.2v0.8h-4.1V611.7z"/>
        <path d="M69.1,614.7c0.5-0.5,1.2-0.7,1.9-0.7c1.4,0,2,0.7,2,2v2c0,0.3,0,0.6,0.1,0.8h-0.7c0-0.2,0-0.5,0-0.7h0 c-0.3,0.5-0.8,0.8-1.5,0.8c-0.9,0-1.7-0.5-1.7-1.4c0-1.5,1.8-1.6,2.9-1.6h0.3v-0.1c0-0.7-0.4-1-1.2-1c-0.5,0-1,0.2-1.4,0.5 L69.1,614.7z M71.3,616.5c-1,0-1.6,0.3-1.6,0.9c0,0.6,0.4,0.8,1,0.8c0.9,0,1.4-0.6,1.4-1.4v-0.3H71.3z"/>
        <path d="M76.1,619.8c-0.3,0.8-0.6,1.3-1.6,1.3c-0.2,0-0.5,0-0.7-0.1l0.1-0.7c0.2,0.1,0.3,0.1,0.5,0.1c0.5,0,0.7-0.3,0.9-0.8 l0.3-0.9l-1.9-4.7h0.9l1.4,3.7h0l1.4-3.7h0.8L76.1,619.8z"/>
        <path d="M83.3,617.9c-0.5,0.7-1.2,1-2.1,1c-1.5,0-2.4-1.1-2.4-2.5c0-1.4,1-2.5,2.4-2.5c1.3,0,2.2,0.9,2.2,2.4v0.2h-3.8 c0.1,0.8,0.7,1.5,1.5,1.5c0.7,0,1.1-0.2,1.5-0.7L83.3,617.9z M82.7,616c0-0.8-0.5-1.3-1.4-1.3s-1.4,0.5-1.5,1.3H82.7z"/>
        <path d="M84.7,615.2c0-0.4,0-0.8,0-1.1h0.7c0,0.2,0,0.5,0,0.8h0c0.2-0.5,0.8-0.9,1.6-0.9c0.1,0,0.2,0,0.3,0.1l0,0.8 c-0.1,0-0.3-0.1-0.4-0.1c-0.9,0-1.4,0.7-1.4,1.7v2.3h-0.8V615.2z"/>
        <path d="M88.3,617.5c0.3,0.4,0.6,0.6,1.2,0.6c0.5,0,1-0.2,1-0.7c0-0.5-0.5-0.6-1-0.7c-0.9-0.2-1.6-0.4-1.6-1.4 c0-0.9,0.9-1.4,1.7-1.4c0.7,0,1.3,0.2,1.6,0.8l-0.6,0.4c-0.2-0.3-0.5-0.6-1-0.6c-0.4,0-0.9,0.2-0.9,0.7c0,0.4,0.6,0.6,1.2,0.7 c0.8,0.2,1.5,0.5,1.5,1.4c0,1.1-0.9,1.5-1.9,1.5c-0.8,0-1.4-0.2-1.8-0.9L88.3,617.5z"/>
      </g>
      <g class="st5">
        <path d="M118.3,636.2h-2.3v6.3h-0.8v-6.3h-2.3v-0.8h5.5V636.2z"/>
        <path d="M123.3,641.7c-0.5,0.7-1.2,1-2.1,1c-1.5,0-2.4-1.1-2.4-2.5c0-1.4,1-2.5,2.4-2.5c1.3,0,2.2,0.9,2.2,2.4v0.2h-3.8 c0.1,0.8,0.7,1.5,1.5,1.5c0.7,0,1.1-0.2,1.5-0.7L123.3,641.7z M122.6,639.8c0-0.8-0.5-1.3-1.4-1.3s-1.4,0.5-1.5,1.3H122.6z"/>
        <path d="M124.7,639c0-0.4,0-0.8,0-1.1h0.7c0,0.2,0,0.5,0,0.8h0c0.2-0.5,0.8-0.9,1.6-0.9c1,0,1.3,0.6,1.5,0.9 c0.3-0.5,0.8-0.9,1.5-0.9c1.3,0,1.8,0.7,1.8,2v2.8h-0.8v-2.8c0-0.6-0.2-1.3-1.1-1.3c-0.7,0-1.2,0.5-1.2,1.4v2.7h-0.8v-2.6 c0-1-0.3-1.4-0.9-1.4c-1,0-1.4,0.7-1.4,1.8v2.3h-0.8V639z"/>
        <path d="M133.1,637.9h0.8v0.7h0c0.4-0.5,1-0.8,1.7-0.8c1.5,0,2.5,1,2.5,2.5c0,1.4-1,2.5-2.3,2.5c-0.8,0-1.5-0.4-1.8-0.9h0v3.1 h-0.8V637.9z M135.6,641.9c1,0,1.7-0.8,1.7-1.7s-0.6-1.7-1.7-1.7c-1,0-1.7,0.8-1.7,1.7S134.6,641.9,135.6,641.9z"/>
        <path d="M139.4,635h0.8v7.6h-0.8V635z"/>
        <path d="M141.6,638.5c0.5-0.5,1.2-0.7,1.9-0.7c1.4,0,2,0.7,2,2v2c0,0.3,0,0.6,0.1,0.8h-0.7c0-0.2,0-0.5,0-0.7h0 c-0.3,0.5-0.8,0.8-1.5,0.8c-0.9,0-1.7-0.5-1.7-1.4c0-1.5,1.8-1.6,2.9-1.6h0.3v-0.1c0-0.7-0.4-1-1.2-1c-0.5,0-1,0.2-1.4,0.5 L141.6,638.5z M143.9,640.3c-1,0-1.6,0.3-1.6,0.9c0,0.6,0.4,0.8,1,0.8c0.9,0,1.4-0.6,1.4-1.4v-0.3H143.9z"/>
        <path d="M149.4,638.5h-1.4v2.3c0,0.6,0,1.1,0.7,1.1c0.2,0,0.5,0,0.7-0.2l0,0.7c-0.3,0.1-0.6,0.2-0.9,0.2c-1.1,0-1.3-0.6-1.3-1.6 v-2.6h-1v-0.7h1v-1.3h0.8v1.3h1.4V638.5z"/>
        <path d="M154.6,641.7c-0.5,0.7-1.2,1-2.1,1c-1.5,0-2.4-1.1-2.4-2.5c0-1.4,1-2.5,2.4-2.5c1.3,0,2.2,0.9,2.2,2.4v0.2H151 c0.1,0.8,0.7,1.5,1.5,1.5c0.7,0,1.1-0.2,1.5-0.7L154.6,641.7z M153.9,639.8c0-0.8-0.5-1.3-1.4-1.3s-1.4,0.5-1.5,1.3H153.9z"/>
      </g>
      <path class="st5" d="M90.3,638.7H90V638c0-0.9-0.8-1.7-1.9-1.7c-1.1,0-1.9,0.8-1.9,1.7v0.7H86c-0.4,0-0.7,0.3-0.7,0.7v2.9 c0,0.4,0.3,0.7,0.7,0.7h4.3c0.4,0,0.7-0.3,0.7-0.7v-2.9C91,639,90.7,638.7,90.3,638.7z M87.2,638c0-0.4,0.4-0.7,1-0.7s1,0.3,1,0.7 v0.7h-1.9V638z M87.6,641.5v-1.4h1v1.4H87.6z"/>
      <path class="st5" d="M72.6,639.6c0,0-1.5,2.7-3.8,2.7c-2.3,0-3.8-2.7-3.8-2.7s1.5-2.7,3.8-2.7C71.1,637,72.6,639.6,72.6,639.6z M70.7,639.6c0-1-0.8-1.9-1.9-1.9c-1,0-1.9,0.8-1.9,1.9s0.8,1.9,1.9,1.9C69.8,641.5,70.7,640.7,70.7,639.6z M68.8,638.8 c-0.5,0-0.8,0.4-0.8,0.8c0,0.5,0.4,0.8,0.8,0.8c0.5,0,0.8-0.4,0.8-0.8C69.6,639.2,69.2,638.8,68.8,638.8z"/>
      <polyline class="st10" points="182,649.2 182,668.2 59.1,668.2 59.1,649.2 &#9;&#9;"/>
    </g>
    <g class="st3">
      <circle class="st13" cx="294.5" cy="642.7" r="33.7"/>
      <circle class="st14" cx="334.8" cy="632.8" r="33.7"/>
      <polygon class="st5" points="358.4,640.7 358.4,652.8 361.6,649.1 366.7,649.1 &#9;&#9;"/>
      <g class="st5">
        <rect x="260.8" y="609.1" class="st15" width="67.3" height="67.3"/>
        <g>
          <g>
            <rect x="259.3" y="607.5" class="st2" width="3" height="3"/>
            <path d="M262,607.9v2.2h-2.2v-2.2H262 M262.8,607.1h-3.8v3.8h3.8V607.1L262.8,607.1z"/>
          </g>
          <g>
            <rect x="326.7" y="607.5" class="st2" width="3" height="3"/>
            <path d="M329.3,607.9v2.2h-2.2v-2.2H329.3 M330.1,607.1h-3.8v3.8h3.8V607.1L330.1,607.1z"/>
          </g>
          <g>
            <rect x="326.7" y="674.9" class="st2" width="3" height="3"/>
            <path d="M329.3,675.3v2.2h-2.2v-2.2H329.3 M330.1,674.5h-3.8v3.8h3.8V674.5L330.1,674.5z"/>
          </g>
          <g>
            <rect x="259.3" y="674.9" class="st2" width="3" height="3"/>
            <path d="M262,675.3v2.2h-2.2v-2.2H262 M262.8,674.5h-3.8v3.8h3.8V674.5L262.8,674.5z"/>
          </g>
          <g>
            <rect x="259.3" y="641.2" class="st2" width="3" height="3"/>
            <path d="M262,641.6v2.2h-2.2v-2.2H262 M262.8,640.8h-3.8v3.8h3.8V640.8L262.8,640.8z"/>
          </g>
          <g>
            <rect x="326.7" y="641.2" class="st2" width="3" height="3"/>
            <path d="M329.3,641.6v2.2h-2.2v-2.2H329.3 M330.1,640.8h-3.8v3.8h3.8V640.8L330.1,640.8z"/>
          </g>
          <g>
            <rect x="293" y="674.9" class="st2" width="3" height="3"/>
            <path d="M295.6,675.3v2.2h-2.2v-2.2H295.6 M296.4,674.5h-3.8v3.8h3.8V674.5L296.4,674.5z"/>
          </g>
          <g>
            <rect x="293" y="607.5" class="st2" width="3" height="3"/>
            <path d="M295.6,607.9v2.2h-2.2v-2.2H295.6 M296.4,607.1h-3.8v3.8h3.8V607.1L296.4,607.1z"/>
          </g>
        </g>
      </g>
    </g>
    <g class="st3">
      <g class="st5">
        <path class="st16" d="M483.3,633.9c-1.6-4.5-6.4-6.7-10.8-6.7c-4.2,0-7.9,2-7.9,6.3c0,8.1,24.6,6.6,24.6,24.4 c0,12-9.3,20.4-22.8,20.4c-10.9,0-19.7-5.7-23.1-12.2l9.8-8c2.8,4.6,8.8,7.8,15,7.8c4.4,0,7.5-2,7.5-6.2c0-9.6-24.5-6.8-24.5-25 c0-10.7,8.4-18.8,22.1-18.8c8,0,17,3.2,21,9.6L483.3,633.9z"/>
        <path class="st16" d="M523.1,677.3c-2.1,0.5-4.8,1.1-7.6,1.1c-9.8,0-15.5-6.1-15.5-15.6c0-1.8,0.2-3.8,0.6-5.9l6.1-28.3h-6.3 l2.6-11.9h6.3l3.7-17.5h13.9l-3.7,17.5h11.7l-2.6,11.9h-11.7l-6.3,29.9c-0.2,0.7-0.2,1.4-0.2,1.9c0,3.1,1.9,4.9,4.9,4.9 c2.1,0,3.4-0.4,4.6-1.1L523.1,677.3z"/>
      </g>
      <rect x="443.3" y="599.1" class="st11" width="91.6" height="79.3"/>
      <g class="st5">
        <rect x="441.8" y="597.6" class="st2" width="3" height="3"/>
        <path d="M444.4,598v2.2h-2.2V598H444.4 M445.2,597.2h-3.8v3.8h3.8V597.2L445.2,597.2z"/>
      </g>
      <g class="st5">
        <rect x="487.6" y="597.6" class="st2" width="3" height="3"/>
        <path d="M490.2,598v2.2H488V598H490.2 M491,597.2h-3.8v3.8h3.8V597.2L491,597.2z"/>
      </g>
      <g class="st5">
        <rect x="487.6" y="676.8" class="st2" width="3" height="3"/>
        <path d="M490.2,677.2v2.2H488v-2.2H490.2 M491,676.4h-3.8v3.8h3.8V676.4L491,676.4z"/>
      </g>
      <g class="st5">
        <rect x="441.8" y="676.8" class="st2" width="3" height="3"/>
        <path d="M444.4,677.2v2.2h-2.2v-2.2H444.4 M445.2,676.4h-3.8v3.8h3.8V676.4L445.2,676.4z"/>
      </g>
      <g class="st5">
        <rect x="533.3" y="676.7" class="st2" width="3" height="3"/>
        <path d="M536,677.1v2.2h-2.2v-2.2H536 M536.8,676.3h-3.8v3.8h3.8V676.3L536.8,676.3z"/>
      </g>
      <g class="st5">
        <rect x="533.3" y="597.6" class="st2" width="3" height="3"/>
        <path d="M536,598v2.2h-2.2V598H536 M536.8,597.2h-3.8v3.8h3.8V597.2L536.8,597.2z"/>
      </g>
      <g class="st5">
        <rect x="533.3" y="637.2" class="st2" width="3" height="3"/>
        <path d="M536,637.6v2.2h-2.2v-2.2H536 M536.8,636.8h-3.8v3.8h3.8V636.8L536.8,636.8z"/>
      </g>
      <g class="st5">
        <rect x="441.8" y="637.2" class="st2" width="3" height="3"/>
        <path d="M444.4,637.6v2.2h-2.2v-2.2H444.4 M445.2,636.8h-3.8v3.8h3.8V636.8L445.2,636.8z"/>
      </g>
      <g class="st5">
        <rect x="472.3" y="614.6" width="2.3" height="2.3"/>
      </g>
      <g class="st5">
        <rect x="507.9" y="615.5" width="2.3" height="2.3"/>
      </g>
      <g class="st5">
        <rect x="522.2" y="615.5" width="2.3" height="2.3"/>
      </g>
      <g class="st5">
        <rect x="525.8" y="598" width="2.3" height="2.3"/>
      </g>
      <g class="st5">
        <rect x="511.8" y="598" width="2.3" height="2.3"/>
      </g>
      <g class="st5">
        <rect x="533.7" y="615.5" width="2.3" height="2.3"/>
      </g>
      <g class="st5">
        <rect x="531" y="627.3" width="2.3" height="2.3"/>
      </g>
      <g class="st5">
        <rect x="519.5" y="627.3" width="2.3" height="2.3"/>
      </g>
      <g class="st5">
        <rect x="513" y="657.9" width="2.3" height="2.3"/>
      </g>
      <g class="st5">
        <rect x="522.4" y="663" width="2.3" height="2.3"/>
      </g>
      <g class="st5">
        <rect x="522" y="675.9" width="2.3" height="2.3"/>
      </g>
      <g class="st5">
        <rect x="499.6" y="655.2" width="2.3" height="2.3"/>
      </g>
      <g class="st5">
        <rect x="501.8" y="615.5" width="2.3" height="2.3"/>
      </g>
      <g class="st5">
        <rect x="499.3" y="627.3" width="2.3" height="2.3"/>
      </g>
      <g class="st5">
        <rect x="505.6" y="627.3" width="2.3" height="2.3"/>
      </g>
      <g class="st5">
        <rect x="471.6" y="625.9" width="2.3" height="2.3"/>
      </g>
      <g class="st5">
        <rect x="493.1" y="624.3" width="2.3" height="2.3"/>
      </g>
      <g class="st5">
        <rect x="482.4" y="632.6" width="2.3" height="2.3"/>
      </g>
      <g class="st5">
        <rect x="463.5" y="632.6" width="2.3" height="2.3"/>
      </g>
      <g class="st5">
        <rect x="449.9" y="632.6" width="2.3" height="2.3"/>
      </g>
      <g class="st5">
        <rect x="474.5" y="657.9" width="2.3" height="2.3"/>
      </g>
      <g class="st5">
        <rect x="466.4" y="664.9" width="2.3" height="2.3"/>
      </g>
      <g class="st5">
        <rect x="452.1" y="657.1" width="2.3" height="2.3"/>
      </g>
      <g class="st5">
        <rect x="442.1" y="664.9" width="2.3" height="2.3"/>
      </g>
      <g class="st5">
        <rect x="464.9" y="677.1" width="2.3" height="2.3"/>
      </g>
      <g class="st5">
        <rect x="487.9" y="657.9" width="2.3" height="2.3"/>
      </g>
    </g>
    <g class="st3">
      <g class="st5">
        <path class="st6" d="M270.8,761.1c-1.8,0-3.5-0.2-4.9-1.7l1.9-1.9c1,1,2.2,1.1,3.1,1.1c1,0,2-0.3,2-1.2c0-0.6-0.3-1-1.2-1.1 l-1.8-0.2c-2.1-0.2-3.4-1.1-3.4-3.2c0-2.4,2.1-3.7,4.5-3.7c1.8,0,3.3,0.3,4.4,1.4l-1.8,1.8c-0.7-0.6-1.7-0.8-2.7-0.8 c-1.2,0-1.6,0.5-1.6,1.1c0,0.4,0.2,0.9,1.2,1l1.8,0.2c2.3,0.2,3.4,1.4,3.4,3.4C275.7,759.9,273.5,761.1,270.8,761.1z"/>
        <path class="st6" d="M280.7,761c-2.4,0-3.4-1.7-3.4-3.3V752h-1.2v-2.2h1.2v-3.4h2.9v3.4h2v2.2h-2v5.6c0,0.7,0.3,1,1,1h1v2.4 H280.7z"/>
        <path class="st6" d="M283.6,747.4v-2.4h3v2.4H283.6z M283.6,761v-11.6h2.9V761H283.6z"/>
        <path class="st6" d="M293.1,761.1c-2.3,0-5.2-1.2-5.2-5.9s2.9-5.9,5.2-5.9c1.6,0,2.8,0.5,3.8,1.6l-2,2c-0.6-0.6-1.1-0.9-1.9-0.9 c-0.7,0-1.2,0.2-1.6,0.8c-0.4,0.6-0.6,1.3-0.6,2.6c0,1.2,0.2,2,0.6,2.6c0.4,0.5,1,0.8,1.6,0.8c0.8,0,1.3-0.3,1.9-0.9l2,1.9 C295.9,760.6,294.7,761.1,293.1,761.1z"/>
        <path class="st6" d="M304.9,761l-2.8-4.8l-1.2,1.4v3.4h-2.9v-15.8h2.9v9l3.8-4.7h3.5l-4.1,4.7l4.4,6.9H304.9z"/>
        <path class="st6" d="M310.9,756.1c0,1.5,0.9,2.6,2.5,2.6c1.3,0,1.9-0.4,2.6-1.1l1.8,1.7c-1.2,1.2-2.3,1.8-4.4,1.8 c-2.7,0-5.4-1.2-5.4-5.9c0-3.8,2-5.9,5-5.9c3.2,0,5,2.4,5,5.5v1.3H310.9z M315,752.9c-0.3-0.7-1-1.2-1.9-1.2 c-1,0-1.6,0.5-1.9,1.2c-0.2,0.4-0.2,0.7-0.3,1.2h4.4C315.2,753.6,315.2,753.3,315,752.9z"/>
        <path class="st6" d="M325.8,752.6c-0.4-0.4-0.8-0.7-1.5-0.7c-0.9,0-1.9,0.7-1.9,2.1v7h-2.9v-11.6h2.8v1.1 c0.6-0.7,1.7-1.2,2.9-1.2c1.1,0,1.9,0.3,2.7,1.1L325.8,752.6z"/>
      </g>
      <g class="st5">
        <path class="st6" d="M340.9,749.3c-1.4,0-2.5,0.4-3.5,1.5c-0.7-1-1.8-1.5-3.1-1.5c-1.1,0-2.1,0.4-2.9,1.2v-1.1h-2.8V761h2.9v-7 c0-1.6,1-2.1,1.9-2.1c0.9,0,1.9,0.5,1.9,2.1v7h2.9v-7.1c0-1.5,1-2,1.9-2c0.9,0,1.9,0.5,1.9,2.1v7h2.9v-7.4c0-1.3-0.3-2.4-1.3-3.3 C343.1,749.7,342.1,749.3,340.9,749.3z"/>
        <path class="st6" d="M353.5,756.4c0,1.6-1,2.1-1.9,2.1c-0.9,0-1.9-0.5-1.9-2.1v-7h-2.9v7.4c0,1.3,0.2,2.4,1.2,3.3 c0.6,0.6,1.6,1,2.7,1c1.1,0,2.1-0.4,2.9-1.2v1.1h2.8v-11.6h-2.9V756.4z"/>
        <path class="st6" d="M361.1,757.5v-12.3h-2.9v12.5c0,1.6,1,3.3,3.4,3.3h1.6v-2.4h-1.1C361.4,758.6,361.1,758.2,361.1,757.5z"/>
        <path class="st6" d="M373.9,754.8c0-3.2-1.8-5.5-5-5.5c-3,0-5,2.1-5,5.9c0,4.7,2.6,5.9,5.4,5.9c2.1,0,3.2-0.6,4.4-1.8l-1.8-1.7 c-0.7,0.7-1.4,1.1-2.6,1.1c-1.6,0-2.5-1.1-2.5-2.6h7.3V754.8z M366.6,754.1c0-0.5,0.1-0.8,0.3-1.2c0.3-0.7,1-1.2,1.9-1.2 c1,0,1.6,0.5,1.9,1.2c0.2,0.4,0.2,0.7,0.3,1.2H366.6z"/>
      </g>
      <path class="st17" d="M253.3,765.4c-0.2,0.1-0.5,0.1-0.8,0.1c-0.3,0-0.6,0-0.8-0.1c-0.1-0.1-0.1-0.2-0.1-0.3c0-0.1,0-0.2,0-0.4 c0-0.1,0.1-0.3,0-0.4c-0.1-0.1-0.3-0.1-0.4-0.1c-0.1-0.1-0.2-0.2-0.2-0.4c0-0.1,0-0.1-0.1-0.2c0-0.3,0.1-0.7,0.1-1 c0.1-0.3,0.2-0.6,0.2-0.9c0.1-0.5,0.1-1,0.1-1.4c0-0.2,0-0.4,0-0.6c0-0.2,0.1-0.4,0.2-0.5c0-0.1,0-0.1,0-0.2c0-0.1,0-0.1,0-0.2 c0-0.1,0-0.3,0-0.4c0-0.4,0-1,0-1.4c0-0.1,0.1-0.3,0-0.3c-0.4,0-0.8,0.1-1.3,0.1c-1.1,0.1-2.5,0.2-3.6-0.1c-0.1,0-0.2,0-0.3,0 c-0.8-0.2-1.5-0.5-2-0.9c-0.1-0.1-0.2-0.1-0.3-0.2c-0.1-0.1-0.2-0.2-0.3-0.2c-0.4-0.2-1,0-1.2,0.3c-0.1,0.1-0.1,0.3-0.2,0.4 c-0.1,0.1-0.1,0.3-0.2,0.4c-0.3,0.7-0.6,1.3-0.9,1.9c-0.2,0.4-0.4,0.8-0.5,1.2c-0.3,0.9,0,2.1,0.2,3c0,0.1,0.1,0.2,0.1,0.2 c0.1,0.2,0.2,0.5,0.4,0.6c0.1,0.1,0.2,0.1,0.3,0.2c0.1,0.1,0.2,0.3,0.3,0.5c0,0.1,0.1,0.2,0.1,0.2c0.1,0.2,0.1,0.4-0.1,0.5 c-0.2,0.1-0.4,0.1-0.6,0.1c-0.1,0-0.1,0.2-0.1,0.2c0,0-0.2,0.1-0.3,0.1c-0.3,0.1-0.8,0.1-1,0c-0.1,0-0.2-0.1-0.3-0.2 c-0.1-0.2,0.1-0.4,0-0.6c-0.1-0.1-0.2,0-0.3-0.1c-0.2-0.1-0.3-0.2-0.4-0.4c-0.2-0.4-0.1-1.1-0.1-1.7c0-0.2,0-0.3,0-0.5 c0-0.3-0.1-0.6-0.1-1c0-0.2-0.1-0.3-0.1-0.4c-0.1-0.2-0.1-0.5-0.2-0.7c-0.1-0.3-0.1-0.5,0-0.7c0-0.1,0.1-0.1,0.1-0.2 c0.1-0.1,0.1-0.3,0.1-0.4c0-0.1-0.2,0-0.2-0.1c-0.1-0.7-0.2-1.4-0.3-2.1c0-0.2,0-0.5,0-0.7c0-0.5,0-1-0.1-1.5 c0-0.2-0.1-0.5-0.1-0.7c-0.1-0.6-0.3-1.5-0.1-2.1c0.1-0.4,0.2-0.8,0.5-1.1c0.2-0.2,0.4-0.4,0.6-0.6c0.2-0.2,0.4-0.4,0.7-0.5 c0.1-0.1,0.3-0.2,0.5-0.3c0.4-0.2,0.9-0.3,1.4-0.3c0.5,0,1.1,0,1.6,0.1c0.5,0.1,1,0.2,1.4,0.3c0.5,0.1,0.9,0.2,1.4,0.3 c0.1,0,0.1,0.1,0.2,0.1c0.1,0,0.3,0,0.5,0.1c0.4,0.1,0.9,0.2,1.4,0.2c0.5,0,1,0,1.5-0.1c0.1,0,0.1-0.1,0.2-0.1c0.1,0,0.2,0,0.2,0 c0,0,0.1-0.1,0.1-0.1c0.3-0.1,0.5-0.2,0.7-0.4c0.2-0.1,0.3-0.2,0.6-0.3c0.1,0,0.2-0.1,0.3-0.1c0.2-0.1,0.5-0.1,0.7-0.3 c0.3-0.2,0.5-0.4,0.7-0.6c0.2-0.2,0.5-0.4,0.7-0.6c0.5-0.4,1-0.8,1.5-1.2c0.2-0.2,0.5-0.4,0.8-0.5c0.6-0.3,1.1-0.7,1.9-0.7 c0.3,0,0.6,0,1,0c0.1,0,0.2,0.1,0.3,0c0.1,0,0.2-0.2,0.2-0.3c0.1-0.2,0.2-0.4,0.3-0.6c0.1-0.2,0-0.3,0.2-0.3 c0.2,0,0.1,0.4,0.1,0.6c0,0.2,0,0.5,0,0.6c0,0.1,0.1,0.2,0.3,0.2c0.1,0,0.1-0.1,0.2-0.1c0.1-0.1,0.2-0.1,0.2-0.1 c0.1-0.1,0.3-0.3,0.4-0.4c0.1-0.1,0.3-0.4,0.5-0.4c0.3,0,0,0.5-0.1,0.7c-0.2,0.4-0.3,0.6-0.5,1c-0.1,0.1-0.3,0.3-0.3,0.5 c0,0.1,0.1,0.2,0.1,0.3c0,0,0,0.1,0.1,0.2c0.1,0.2,0.2,0.6,0.3,0.9c0.1,0.2,0.1,0.5,0.2,0.7c0.1,0.2,0.2,0.5,0.3,0.7 c0,0.1,0,0.1,0.1,0.2c0.2,0.5,0.4,1.1,0.6,1.6c0.1,0.2,0.2,0.5,0.2,0.8c0,0.3-0.2,0.5-0.3,0.7c-0.1,0.1-0.2,0.3-0.3,0.4 c-0.1,0-0.2,0-0.3,0c-0.1,0-0.2,0.1-0.3,0.1c-0.3,0-0.6-0.2-0.7-0.4c0-0.1,0-0.2,0-0.3c-0.1-0.4-0.2-0.5-0.5-0.8 c-0.2-0.1-0.3-0.3-0.5-0.4c-0.3-0.1-0.6-0.2-0.9-0.4c-0.1-0.1-0.2-0.1-0.3-0.1c-0.2,0-0.3,0.3-0.4,0.5c-0.8,1-1.5,2.1-2.2,3.1 c-0.5,0.7-1,1.3-1.4,2.1c-0.1,0.2-0.2,0.4-0.2,0.6c-0.1,0.2-0.1,0.5-0.2,0.7c-0.3,0.8-0.4,1.9-0.7,2.7c0,0.1,0,0.2-0.1,0.3 c-0.1,0.4-0.2,1-0.4,1.4c-0.1,0.4-0.1,0.8-0.2,1.3c0,0.4,0,1.1,0.1,1.3c0.1,0.1,0.4,0.2,0.5,0.4c0.1,0.1,0.1,0.3,0.2,0.5 c0.1,0.1,0.2,0.3,0.2,0.5c0,0.1-0.1,0.2-0.2,0.2c-0.1,0-0.2,0-0.3,0.1C253.4,765.2,253.4,765.3,253.3,765.4z"/>
    </g>
  </g>
</svg>