<?xml version="1.0" encoding="utf-8"?>
<!-- Generator: Adobe Illustrator 19.2.1, SVG Export Plug-In . SVG Version: 6.00 Build 0)  -->
<svg version="1.1" id="Layer_1" xmlns="http://www.w3.org/2000/svg" xmlns:xlink="http://www.w3.org/1999/xlink" x="0px" y="0px"
	 viewBox="0 0 775 276.7" style="enable-background:new 0 0 775 276.7;" xml:space="preserve">
<style type="text/css">
	.st0{fill:#1A1A1A;}
</style>
<g>
	<g>
		<path class="st0" d="M418.7,160.5c-0.3-1.6-0.7-3.3-1.1-4.9c-0.5-1.9-1.2-3.7-2-5.5c-0.1-0.2-0.2-0.5-0.3-0.7
			c-7-15.3-22.3-26.2-40-26.5c-15.3-0.3-28.9,7.2-37.2,18.7c-1.8,2.4-3.3,5.1-4.6,7.9c-0.1,0.2-0.2,0.4-0.3,0.7
			c-0.8,1.8-1.4,3.6-2,5.5c-0.5,1.6-0.8,3.2-1.1,4.9c-0.3,1.5-0.5,3.1-0.6,4.7c-0.1,1.3-0.1,2.5-0.1,3.8c0,2.1,0.2,4.2,0.6,6.2
			c0.3,1.9,0.7,3.7,1.2,5.5c5.4,18.5,22.3,32.3,42.4,32.7c15.3,0.3,28.9-7.2,37.2-18.7l-23.2-8.5c-3.3,3.1-7.6,4.9-12.1,5.1
			c-7.8,0.4-14.4-3.5-17.9-10.7c-0.8-1.7-1.5-3.5-1.9-5.5h1.5h36.5h25.3c0.2-1.3,0.4-2.7,0.5-4.1c0.1-1.3,0.1-2.5,0.1-3.8
			C419.3,165,419.1,162.7,418.7,160.5z M355.4,160.5c0.5-1.7,1.1-3.4,1.9-4.9c1.1-2.1,2.4-3.9,4-5.5h0.1l-0.1,0
			c0.2-0.2,0.5-0.4,0.7-0.6c3.2-2.8,7.1-4.6,11.3-4.8c5.2-0.3,9.8,1.5,13.4,4.8c0.2,0.2,0.5,0.4,0.7,0.7c1.5,1.5,2.8,3.4,3.8,5.5
			c0.7,1.5,1.3,3.1,1.8,4.9h-3.1H355.4z"/>
		<path class="st0" d="M126.7,62.5c0-17.1-10.4-31.8-25.2-38.1c-5-2.1-10.4-3.3-16.1-3.3H36.7h-0.1l0.1,115.2h25.1v-32.5h18.6
			l15.9,32.5h27.4l-18.8-37.4C117.9,91.9,126.7,78.2,126.7,62.5z M101.6,62.5c0,9-7.3,16.3-16.3,16.3H61.8V46.2h23.5
			C94.3,46.2,101.6,53.5,101.6,62.5z"/>
		<path class="st0" d="M157.9,99.4v-8.9L136.6,110l21.3,20.4v-8.9c20.3,0,32.4,17.6,32.4,35.5c0,17.9-12.5,36.1-32.4,36.1
			c-21.6,0-32.4-18.2-32.4-36.1h-25.2c0,31.8,25.8,57.6,57.6,57.6c31.8,0,57.6-25.8,57.6-57.6C215.6,125.1,189.8,99.4,157.9,99.4z"
			/>
		<path class="st0" d="M688.8,177.8c-2.8,8.4-9.7,13.2-17.4,13.6c-8.8,0.4-16-4.6-19.2-13.7c-0.7-2-1.2-4.2-1.4-6.6
			c-0.1-1.3-0.2-2.6-0.2-4c0-0.6,0-1.3,0.1-1.9c0.2-2.4,0.6-4.6,1.4-6.7c2.9-8.1,9.7-13.5,17.3-13.9c8.8-0.4,16,4.8,19.1,14
			l24.7-4.4c-5.8-17.8-22.4-31-41.9-31.3c-20.4-0.4-37.7,13-43.7,31.3c-1.3,3.9-2,8.1-2.2,12.4c0,0.8,0,1.6,0,2.4c0,0.2,0,0.5,0,0.7
			c0.1,4.3,0.9,8.4,2.2,12.4c5.8,17.8,22.4,31,41.9,31.3c20.4,0.4,37.7-13,43.7-31.3L688.8,177.8z"/>
		<rect x="725.5" y="125.6" class="st0" width="25.1" height="85.9"/>
		<path class="st0" d="M748.8,108.8h-21.1c-1.1,0-2.1-0.9-2.1-2.1V85.7c0-1.1,0.9-2.1,2.1-2.1h21.1c1.1,0,2.1,0.9,2.1,2.1v21.1
			C750.9,107.9,749.9,108.8,748.8,108.8z"/>
		<path class="st0" d="M609.6,156.8c-7.7-9.8-26.8-16.6-36.1-20c-8.3-3-11.3-5.4-11.2-9.5c0.3-7.8,7.9-9.5,13-9.5
			c11.3,0,13,11.9,13,11.9l22.2-5.5c0,0-4.3-28.1-38.9-28.1c-11.2,0-23.4,6.6-29.8,15c-5.7,7.5-6.4,16.7-2.7,25.9
			c4.9,12.3,15,16,25.2,19.7c7.6,2.8,17.8,5.6,24.2,12c3.1,3.1,3.7,8.4,1.5,12.9c-2.3,4.9-8.8,8.3-15.1,8.3
			c-13.8,0-19.4-12.4-19.6-12.9l-0.7-1.7l-25,5l0.6,2.1c0.1,0.3,2.3,7.8,9,15.4c6.2,7,17.5,15.4,36.4,15.4
			c16.1,0,28.9-6.9,35.8-19.4C617.9,182.2,618.2,167.7,609.6,156.8z"/>
		<path class="st0" d="M278,123c-9.1-0.2-18.5,2.4-23.4,7v-4.2h-25.1v125.9h25.1v-45c4.4,4.2,13.3,6.7,21.7,6.9
			c25.5,0.5,43.5-20.6,43.1-46.1C318.9,143.4,302,123.5,278,123z M275.4,191.6c-11.7,0.6-20.7-8.5-20.8-24V167
			c0.1-12.6,8.7-21.8,18.7-22.3c11.7-0.6,20.8,9.1,20.8,24.6C294.1,183,285.4,191,275.4,191.6z"/>
	</g>
	<path class="st0" d="M477,123.3c-15,0-22,9.9-22,9.9v-7.6h-23.4v85.9H455c0,0,0-27.2,0-40.4c0-14.1,6.5-25.3,18-25.3
		s17.7,10,17.7,25.3v40.4h23.7c0,0,0-38.6,0-47.9C514.4,154.4,512.2,123.3,477,123.3z"/>
</g>
</svg>
