<?xml version="1.0" encoding="utf-8"?>
<!-- Generator: Adobe Illustrator 19.2.1, SVG Export Plug-In . SVG Version: 6.00 Build 0)  -->
<svg version="1.1" id="Layer_1" xmlns="http://www.w3.org/2000/svg" xmlns:xlink="http://www.w3.org/1999/xlink" x="0px" y="0px"
	 viewBox="0 0 448.3 550" style="enable-background:new 0 0 448.3 550;" xml:space="preserve">
<style type="text/css">
	.st0{fill:#80CFD3;stroke:#80CFD3;stroke-width:0.25;stroke-linejoin:round;stroke-miterlimit:1;}
	.st1{fill:#8BD3DA;stroke:#8BD3DA;stroke-width:0.25;stroke-linejoin:round;stroke-miterlimit:1;}
	.st2{fill:#67BAB1;stroke:#67BAB1;stroke-width:0.25;stroke-linejoin:round;stroke-miterlimit:1;}
	.st3{fill:#A6DCE7;stroke:#A6DCE7;stroke-width:0.25;stroke-linejoin:round;stroke-miterlimit:1;}
	.st4{fill:#8AD3DD;stroke:#8AD3DD;stroke-width:0.25;stroke-linejoin:round;stroke-miterlimit:1;}
	.st5{fill:#BBE4ED;stroke:#BBE4ED;stroke-width:0.25;stroke-linejoin:round;stroke-miterlimit:1;}
	.st6{fill:#E4F3F7;stroke:#E4F3F7;stroke-width:0.25;stroke-linejoin:round;stroke-miterlimit:1;}
	.st7{fill:#7CCCC8;stroke:#7CCCC8;stroke-width:0.25;stroke-linejoin:round;stroke-miterlimit:1;}
	.st8{fill:#74C3C1;stroke:#74C3C1;stroke-width:0.25;stroke-linejoin:round;stroke-miterlimit:1;}
	.st9{fill:#88D2DD;stroke:#88D2DD;stroke-width:0.25;stroke-linejoin:round;stroke-miterlimit:1;}
	.st10{fill:#8AD3E4;stroke:#8AD3E4;stroke-width:0.25;stroke-linejoin:round;stroke-miterlimit:1;}
	.st11{fill:#64B7AA;stroke:#64B7AA;stroke-width:0.25;stroke-linejoin:round;stroke-miterlimit:1;}
	.st12{fill:#9FDAE4;stroke:#9FDAE4;stroke-width:0.25;stroke-linejoin:round;stroke-miterlimit:1;}
	.st13{fill:#A8DEED;stroke:#A8DEED;stroke-width:0.25;stroke-linejoin:round;stroke-miterlimit:1;}
	.st14{fill:#B1E1F1;stroke:#B1E1F1;stroke-width:0.25;stroke-linejoin:round;stroke-miterlimit:1;}
	.st15{fill:#A0DCF4;stroke:#A0DCF4;stroke-width:0.25;stroke-linejoin:round;stroke-miterlimit:1;}
	.st16{fill:#9CD9E7;stroke:#9CD9E7;stroke-width:0.25;stroke-linejoin:round;stroke-miterlimit:1;}
	.st17{fill:#71C1BC;stroke:#71C1BC;stroke-width:0.25;stroke-linejoin:round;stroke-miterlimit:1;}
	.st18{fill:#9CD8E0;stroke:#9CD8E0;stroke-width:0.25;stroke-linejoin:round;stroke-miterlimit:1;}
	.st19{fill:#B2E1ED;stroke:#B2E1ED;stroke-width:0.25;stroke-linejoin:round;stroke-miterlimit:1;}
	.st20{fill:#7ACCCF;stroke:#7ACCCF;stroke-width:0.25;stroke-linejoin:round;stroke-miterlimit:1;}
	.st21{fill:#D4EDF3;stroke:#D4EDF3;stroke-width:0.25;stroke-linejoin:round;stroke-miterlimit:1;}
	.st22{fill:#7ACCC9;stroke:#7ACCC9;stroke-width:0.25;stroke-linejoin:round;stroke-miterlimit:1;}
	.st23{fill:#8DD3D8;stroke:#8DD3D8;stroke-width:0.25;stroke-linejoin:round;stroke-miterlimit:1;}
	.st24{fill:#6EBEBA;stroke:#6EBEBA;stroke-width:0.25;stroke-linejoin:round;stroke-miterlimit:1;}
	.st25{fill:#80CED0;stroke:#80CED0;stroke-width:0.25;stroke-linejoin:round;stroke-miterlimit:1;}
	.st26{fill:#8CD4E1;stroke:#8CD4E1;stroke-width:0.25;stroke-linejoin:round;stroke-miterlimit:1;}
	.st27{fill:#CDEBF1;stroke:#CDEBF1;stroke-width:0.25;stroke-linejoin:round;stroke-miterlimit:1;}
	.st28{fill:#ADE0F0;stroke:#ADE0F0;stroke-width:0.25;stroke-linejoin:round;stroke-miterlimit:1;}
	.st29{fill:#B9E3EC;stroke:#B9E3EC;stroke-width:0.25;stroke-linejoin:round;stroke-miterlimit:1;}
	.st30{fill:#8DD4E0;stroke:#8DD4E0;stroke-width:0.25;stroke-linejoin:round;stroke-miterlimit:1;}
	.st31{fill:#69BAB3;stroke:#69BAB3;stroke-width:0.25;stroke-linejoin:round;stroke-miterlimit:1;}
	.st32{fill:#CCEAF1;stroke:#CCEAF1;stroke-width:0.25;stroke-linejoin:round;stroke-miterlimit:1;}
	.st33{fill:#9BD9E6;stroke:#9BD9E6;stroke-width:0.25;stroke-linejoin:round;stroke-miterlimit:1;}
	.st34{fill:#A6DDF0;stroke:#A6DDF0;stroke-width:0.25;stroke-linejoin:round;stroke-miterlimit:1;}
	.st35{fill:#A3DDF8;stroke:#A3DDF8;stroke-width:0.25;stroke-linejoin:round;stroke-miterlimit:1;}
	.st36{fill:#79CAC7;stroke:#79CAC7;stroke-width:0.25;stroke-linejoin:round;stroke-miterlimit:1;}
</style>
<g>
	<polygon class="st0" points="398.8,218.5 300.2,287 407.9,287.7 	"/>
	<polygon class="st1" points="407.9,287.7 303,304.5 372.2,357.7 	"/>
	<polyline class="st2" points="407.9,287.7 300.2,287 303,304.5 407.9,287.7 	"/>
	<polygon class="st3" points="285.5,198.9 300.2,287 398.8,218.5 	"/>
	<polygon class="st4" points="372.2,357.7 303,304.5 327.5,361.2 	"/>
	<polyline class="st5" points="285.5,198.9 243.5,220.6 300.2,287 285.5,198.9 	"/>
	<polyline class="st6" points="327.5,361.2 261.7,319.2 254,321.3 327.5,361.2 	"/>
	<polyline class="st7" points="327.5,361.2 254,321.3 231.7,419.2 327.5,361.2 	"/>
	<polygon class="st8" points="327.5,361.2 231.7,419.2 299.5,433.9 	"/>
	<polyline class="st9" points="327.5,361.2 303,304.5 261.7,319.2 327.5,361.2 	"/>
	<polyline class="st10" points="249.8,101 263.1,29.6 231,79.3 249.8,101 	"/>
	<polygon class="st11" points="299.5,433.9 231.7,419.2 273.6,452.1 	"/>
	<polygon class="st12" points="300.2,287 243.5,220.6 261.7,319.2 	"/>
	<polygon class="st11" points="303,304.5 300.2,287 261.7,319.2 	"/>
	<polygon class="st13" points="249.8,101 226.1,211.5 285.5,198.9 	"/>
	<polyline class="st14" points="249.8,101 205.1,201.7 226.1,211.5 249.8,101 	"/>
	<polygon class="st15" points="261.7,319.2 243.5,220.6 254,321.3 	"/>
	<polygon class="st16" points="254,321.3 218.4,414.3 231.7,419.2 	"/>
	<polyline class="st6" points="285.5,198.9 226.1,211.5 243.5,220.6 285.5,198.9 	"/>
	<line class="st17" x1="231" y1="529.1" x2="142.1" y2="463.3"/>
	<polygon class="st18" points="254,321.3 196.7,319.9 218.4,414.3 	"/>
	<polygon class="st19" points="254,321.3 243.5,220.6 196.7,319.9 	"/>
	<polygon class="st20" points="273.6,452.1 231.7,419.2 231,508.1 	"/>
	<polygon class="st21" points="243.5,220.6 226.1,211.5 196.7,319.9 	"/>
	<polygon class="st22" points="263.1,29.6 162.4,40.8 231,79.3 	"/>
	<polygon class="st23" points="218.4,414.3 196.7,319.9 197.4,415.7 	"/>
	<polyline class="st24" points="231,508.1 218.4,414.3 197.4,415.7 231,508.1 	"/>
	<polyline class="st25" points="231,508.1 231.7,419.2 218.4,414.3 231,508.1 	"/>
	<polyline class="st26" points="249.8,101 231,79.3 205.1,201.7 249.8,101 	"/>
	<polygon class="st27" points="226.1,211.5 205.1,201.7 196.7,319.9 	"/>
	<polygon class="st28" points="231,79.3 104.3,180.7 205.1,201.7 	"/>
	<polyline class="st29" points="231,508.1 197.4,415.7 142.1,463.3 231,508.1 	"/>
	<polygon class="st30" points="231,79.3 162.4,40.8 104.3,180.7 	"/>
	<polygon class="st31" points="231,508.1 142.1,463.3 231,529.1 	"/>
	<polygon class="st32" points="205.1,201.7 110.6,196.1 196.7,319.9 	"/>
	<polygon class="st23" points="197.4,415.7 196.7,319.9 131.6,415.7 	"/>
	<polyline class="st33" points="63.8,115.7 104.3,180.7 162.4,40.8 63.8,115.7 	"/>
	<polygon class="st34" points="196.7,319.9 110.6,196.1 66.6,338.8 	"/>
	<polygon class="st35" points="205.1,201.7 104.3,180.7 110.6,196.1 	"/>
	<polygon class="st36" points="197.4,415.7 131.6,415.7 142.1,463.3 	"/>
</g>
</svg>
